<svg width="83" height="40" viewBox="0 0 83 40" fill="none" xmlns="http://www.w3.org/2000/svg">
<g id="WHO Academy Logo" clip-path="url(#clip0_8441_12972)">
<g id="Union">
<path d="M13.6189 2.20423C13.4699 1.43315 13.193 0 14.3062 0C15.3961 0 15.1119 1.27038 14.9322 2.07349C14.8961 2.23497 14.8642 2.37757 14.8485 2.48714C14.8485 2.49228 14.8414 2.7992 14.8308 3.26114L14.8297 3.31122C14.8014 4.5433 14.7497 6.79235 14.7363 7.46143L14.3623 7.55493L13.8013 7.70454C13.7866 6.93915 13.7139 4.15794 13.6837 2.99925L13.6836 2.99799C13.6754 2.68531 13.6704 2.49112 13.6704 2.48714C13.6588 2.41042 13.6401 2.31369 13.6189 2.20423Z" fill="black"/>
<path d="M24.2603 5.46937C23.8796 5.20927 23.5001 4.95 23.2258 4.61898C23.0228 4.37398 22.8696 4.0949 22.7122 3.80825C22.4492 3.32914 22.1745 2.82885 21.6363 2.43104C23.3941 2.80505 24.8901 4.37588 25.2828 6.30201C25.0056 5.97852 24.6324 5.72355 24.2603 5.46937Z" fill="black"/>
<path d="M4.06399 7.2003C3.37958 7.69235 2.64766 8.21856 2.05704 9.49977C2.08159 9.30746 2.05242 9.02204 2.01694 8.67486C1.89028 7.43531 1.68315 5.40839 3.55306 4.02057C3.07583 4.59769 2.96746 5.46462 2.86048 6.32036C2.78721 6.90652 2.71459 7.48742 2.52454 7.96634C3.09727 6.73908 4.0864 6.14739 4.85269 5.68901C5.31241 5.41401 5.69192 5.18698 5.8532 4.89949C5.45904 6.19734 4.7881 6.6797 4.06399 7.2003Z" fill="black"/>
<path d="M4.27465 17.013C4.29852 16.5836 4.32062 16.1859 4.24497 15.8392C5.14746 17.1929 5.28504 18.1192 5.40725 18.9419C5.50787 19.6193 5.59806 20.2266 6.09631 20.9444C5.71424 20.6684 5.20268 20.5446 4.63981 20.4083C3.2191 20.0643 1.47154 19.6412 0.654511 16.4937C1.19755 17.5576 2.20032 18.0961 3.14517 18.6035C3.79466 18.9522 4.41678 19.2863 4.84338 19.7662C4.17398 18.8241 4.22772 17.8573 4.27465 17.013Z" fill="black"/>
<path d="M3.79056 15.8518C3.69579 16.6242 3.59756 17.4248 3.90837 18.5881C3.6946 18.3031 3.31045 18.0527 2.86373 17.7615C1.66915 16.9829 0.0272213 15.9127 0 13.1089C0.234195 13.8209 0.759337 14.3686 1.35916 14.9942C1.95672 15.6174 2.6284 16.318 3.16036 17.3352C2.75893 15.7044 3.0223 14.8815 3.26742 14.1156C3.3877 13.7398 3.50358 13.3777 3.53436 12.9406C3.99591 14.178 3.89535 14.9976 3.79056 15.8518Z" fill="black"/>
<path d="M8.07432 21.5218C8.21403 21.9092 8.34605 22.2753 8.65825 22.7022C8.40631 22.5836 7.98343 22.6021 7.46198 22.6249C6.00949 22.6883 3.79226 22.7851 2.37494 20.0468C3.00886 20.8074 4.03076 21.0011 5.10342 21.2043C5.92935 21.3608 6.78538 21.523 7.51753 21.9542C6.38829 20.8863 6.24195 20.0682 6.12136 19.3941C6.05823 19.0412 6.00216 18.7277 5.8158 18.4385C7.50486 19.9426 7.80398 20.7721 8.07432 21.5218Z" fill="black"/>
<path d="M22.4335 19.3888C22.313 20.0626 22.1654 20.8879 21.0379 21.9542C21.7677 21.5325 22.6206 21.3711 23.4441 21.2152C24.5196 21.0115 25.545 20.8174 26.1805 20.0655C24.7644 22.7739 22.5497 22.6825 21.0972 22.6225C20.574 22.6009 20.1497 22.5834 19.8971 22.7022C20.1973 22.277 20.3281 21.9145 20.465 21.5351C20.7375 20.7797 21.0343 19.9571 22.7396 18.4385C22.5527 18.7221 22.4969 19.0345 22.4335 19.3888Z" fill="black"/>
<path d="M24.2808 17.013C24.3277 17.8573 24.3814 18.8241 23.712 19.7662C24.139 19.2859 24.765 18.9516 25.4188 18.6025C26.3684 18.0954 27.3769 17.5569 27.9196 16.4937C27.1001 19.6374 25.3444 20.0593 23.9213 20.4013C23.3636 20.5354 22.8569 20.6571 22.4778 20.9257C22.9651 20.22 23.0523 19.6199 23.1497 18.9492C23.2692 18.127 23.4041 17.1987 24.3104 15.8392C24.2348 16.1859 24.2569 16.5836 24.2808 17.013Z" fill="black"/>
<path d="M16.8303 22.4778C17.784 22.4965 18.719 22.6461 19.6353 22.8892C21.1688 23.3006 22.4965 23.6185 23.6559 23.0388C22.5526 24.0299 21.2436 24.3852 19.3735 24.1795C18.6775 24.1041 18.0417 23.9045 17.4188 23.709C16.6526 23.4685 15.906 23.2342 15.0912 23.2445H15.0351C15.9701 23.712 16.7929 24.3478 17.4661 25.1332L16.7555 25.2267C16.2319 24.2917 15.3343 23.5998 14.287 23.338C13.2398 23.5998 12.3422 24.2917 11.8186 25.2267L11.108 25.1332C11.7812 24.3478 12.604 23.712 13.539 23.2445H13.4829C12.6802 23.2342 11.9341 23.4675 11.1667 23.7074C10.5397 23.9034 9.89851 24.1038 9.20056 24.1795C7.33053 24.3852 6.0215 24.0299 4.91819 23.0388C6.07761 23.6185 7.40533 23.3006 8.93876 22.8892C9.85507 22.6461 10.7901 22.5152 11.7438 22.4778C12.604 22.4591 13.4642 22.6087 14.287 22.9079C15.0912 22.6087 15.9514 22.4591 16.8303 22.4778Z" fill="black"/>
<path d="M3.06911 11.145C3.26821 10.8853 3.47094 10.6209 3.64656 10.2852C3.70458 11.6099 3.34761 12.3696 3.00223 13.1047C2.67966 13.7912 2.36719 14.4563 2.41234 15.54C2.22773 15.0554 1.87402 14.6775 1.49949 14.2775C0.66002 13.3807 -0.284086 12.3723 0.336606 9.79897C0.336606 10.5233 0.666884 11.097 1.06011 11.7801C1.43846 12.4374 1.87508 13.1958 2.13184 14.2871C2.05063 12.4734 2.5474 11.8254 3.06911 11.145Z" fill="black"/>
<path d="M3.55306 8.34035C4.15147 7.85414 4.30107 7.72324 4.52548 7.40533C4.08074 8.90755 3.51065 9.61585 2.98635 10.2673C2.51859 10.8484 2.08727 11.3843 1.81393 12.3983C1.79403 12.1048 1.61661 11.7583 1.40774 11.3504C0.831566 10.2252 0.0161294 8.63269 1.60823 6.39551C1.25887 7.28056 1.4534 8.3759 1.63636 9.40608C1.7472 10.0302 1.8538 10.6304 1.83263 11.1454C2.05704 10.0421 2.67415 9.05096 3.55306 8.34035Z" fill="black"/>
<path d="M25.0023 8.34035C25.9 9.05096 26.4984 10.0421 26.7228 11.1454C26.694 10.621 26.8033 10.0082 26.9169 9.37079C27.0991 8.34892 27.2927 7.26357 26.9472 6.37681C28.5399 8.62867 27.7231 10.2252 27.1469 11.3515C26.9384 11.7591 26.7613 12.1051 26.7415 12.3983C26.4759 11.3801 26.0426 10.844 25.5706 10.26C25.0457 9.6106 24.473 8.90199 24.0299 7.40533C24.2382 7.70046 24.3982 7.83442 24.8839 8.24113L25.0023 8.34035Z" fill="black"/>
<path d="M27.2143 14.9613C27.8066 14.3436 28.3236 13.8045 28.5554 13.1089C28.5282 15.9127 26.8862 16.9829 25.6917 17.7615C25.245 18.0527 24.8608 18.3031 24.647 18.5881C24.9578 17.4248 24.8596 16.6242 24.7648 15.8518C24.66 14.9976 24.5595 14.178 25.021 12.9406C25.0518 13.3777 25.1677 13.7398 25.288 14.1156C25.5331 14.8815 25.7965 15.7044 25.395 17.3352C25.9324 16.2983 26.6122 15.5892 27.2143 14.9613Z" fill="black"/>
<path d="M25.5621 13.1047C25.2215 12.3696 24.8695 11.6099 24.9275 10.2852C25.101 10.6169 25.2996 10.8789 25.4943 11.1359C26.0133 11.8209 26.5051 12.4701 26.4236 14.3058C26.6863 13.2276 27.1202 12.4743 27.4956 11.8225C27.8951 11.129 28.2284 10.5504 28.2188 9.81767C28.8408 12.3965 27.8913 13.4038 27.0505 14.2957C26.678 14.6909 26.3268 15.0634 26.1431 15.54C26.1882 14.4563 25.8801 13.7913 25.5621 13.1047Z" fill="black"/>
<path d="M5.84319 3.80825C5.68581 4.09491 5.5326 4.37398 5.32959 4.61898C5.05532 4.95 4.67581 5.20927 4.2951 5.46937C3.92304 5.72355 3.54983 5.97852 3.27256 6.30201C3.66526 4.37588 5.16129 2.80505 6.91912 2.43104C6.38091 2.82885 6.10624 3.32914 5.84319 3.80825Z" fill="black"/>
<path d="M24.5101 7.2003C23.786 6.6797 23.1151 6.19734 22.7209 4.89949C22.8833 5.19609 23.2671 5.42603 23.7312 5.7041C24.4961 6.16237 25.4793 6.75139 26.0496 7.98504C25.8585 7.50348 25.783 6.91881 25.7069 6.32937C25.5968 5.47678 25.4854 4.61421 25.021 4.03927C26.8595 5.38557 26.6697 7.38185 26.5508 8.6314C26.5161 8.99585 26.4875 9.29708 26.5171 9.49977C25.9264 8.21856 25.1945 7.69235 24.5101 7.2003Z" fill="black"/>
<path d="M15.1286 5.94671C15.6148 6.02151 16.101 6.15241 16.5685 6.33941C16.5498 6.45161 16.5124 6.54512 16.4563 6.63862C16.0262 6.45161 15.5774 6.33941 15.1286 6.26461V5.94671Z" fill="black"/>
<path d="M16.288 3.12296L16.1945 3.21646H15.9514L15.7083 3.23516C15.54 3.19776 15.3717 3.17906 15.2034 3.17906V3.12296L15.4839 3.14166L15.6148 3.04815H16.101L16.288 3.12296Z" fill="black"/>
<path d="M14.9977 13.4268C15.1473 13.5016 15.2595 13.5951 15.2595 13.6699C15.2595 13.8008 15.1473 13.8943 14.9416 13.9878C14.9603 13.8195 14.9603 13.5016 14.9603 13.4268H14.9977Z" fill="black"/>
<path d="M9.66807 7.42403C9.66339 7.45676 9.65872 7.48948 9.64937 7.51753L9.48107 7.34923C9.55587 7.34923 9.63067 7.34923 9.68677 7.33053C9.67742 7.35858 9.67274 7.3913 9.66807 7.42403Z" fill="black"/>
<path d="M18.1767 9.38757V9.25666L18.345 9.20056L18.3824 9.10706L18.2702 8.92006L18.3263 8.78916L18.4385 8.65825L18.6816 8.52735L18.7938 8.65825L18.6816 8.71435L18.7377 8.82656L18.7938 8.86396L18.7377 8.90136L18.4759 8.71435L18.3637 8.86396L18.5507 9.12576L18.4572 9.29406L18.1767 9.38757Z" fill="black"/>
<path d="M6.30201 16.1384L6.45161 16.4563L6.43291 16.5311L6.13371 16.0823L6.30201 16.1384Z" fill="black"/>
<path fill-rule="evenodd" clip-rule="evenodd" d="M24.1047 11.8186C24.1421 17.2791 19.7475 21.7298 14.287 21.7672C9.23796 21.7672 4.99299 17.9523 4.46938 12.9219C3.88967 7.49883 7.83544 2.63675 13.2585 2.05704L13.3146 2.31884L13.3333 2.39364C11.1828 2.59935 9.16316 3.53436 7.62973 5.04909L8.77045 6.18981C9.27536 5.7036 9.83637 5.27349 10.4535 4.93689C10.4161 4.99299 10.374 5.04909 10.3319 5.10519C10.2899 5.16129 10.2478 5.21739 10.2104 5.27349C10.201 5.31089 10.187 5.35297 10.173 5.39504C10.159 5.43711 10.1449 5.4792 10.1356 5.5166C9.74287 5.7784 9.35016 6.07761 9.01356 6.41421L9.66807 7.06872C9.58225 7.12021 9.48069 7.1402 9.39229 7.15759L9.36886 7.16223H9.29406L8.77045 6.63862C7.44273 8.02244 6.69472 9.85507 6.67602 11.7812H8.30295C8.32165 10.2852 8.90136 8.86396 9.94857 7.81674L9.81767 7.68584C9.85678 7.59458 9.89589 7.5215 9.92867 7.46026C9.9429 7.43366 9.95595 7.40928 9.96727 7.38663L10.1543 7.57363C11.0519 6.69472 12.2113 6.13371 13.4642 5.96541V6.28331C12.3048 6.47031 11.2389 6.99392 10.3974 7.79804L11.5381 8.93876C11.2202 9.35016 11.0519 9.87377 11.0706 10.4161C11.0519 11.2015 11.4633 11.9495 12.1365 12.3609C12.3235 12.4731 12.5105 12.5666 12.6975 12.6601C12.7723 12.8097 12.8658 12.9406 12.978 13.0715L13.2024 12.8471L13.539 12.9593L13.2211 13.2772C13.3333 13.3707 13.4642 13.4455 13.5951 13.5016V13.8382C13.3707 13.7634 13.165 13.6512 12.978 13.5016L11.8186 14.6611C12.0617 14.8668 12.3422 15.0538 12.6414 15.2034C12.5853 15.2969 12.5479 15.3904 12.5292 15.5026C12.1926 15.353 11.8747 15.1286 11.5942 14.8855L10.4722 16.0262C11.3698 16.849 12.4918 17.3726 13.6886 17.5035V17.8214C12.604 17.7092 11.5568 17.2978 10.6966 16.6433V16.7555L10.6031 16.9612L10.0234 16.9425L9.79897 17.1856L9.38756 17.1295L9.08836 17.4287C10.3413 18.6255 11.9682 19.3548 13.7073 19.4857V19.8036C11.8934 19.6727 10.173 18.906 8.84525 17.6531L7.70454 18.7938C11.4072 22.3282 17.2417 22.3095 20.9257 18.7564L19.7849 17.6157C18.4572 18.8873 16.7181 19.654 14.8668 19.7849V19.467C15.2969 19.4296 15.727 19.3548 16.1384 19.2613C16.2506 19.2239 16.3815 19.1304 16.4002 18.7751C16.4937 17.3165 15.6335 16.8116 14.9229 16.4563V15.5774C15.3904 15.4652 15.8392 15.2782 16.2693 15.0351L16.3067 15.0164L16.3254 14.9977C16.7742 14.6985 17.036 14.2122 17.036 13.6699C17.036 12.417 15.9888 11.9308 14.9977 11.5942C15.0164 11.0332 15.0351 9.91117 15.0351 9.91117L15.4652 10.1356L15.6335 10.0982L15.7644 10.1543L15.7457 10.0047L15.6522 9.96728V9.83637H15.5774L15.8579 9.46237L15.9701 9.51847L15.6709 9.79897L15.7831 9.78027L15.8953 9.66807L16.3441 9.57457L16.3815 9.63067L16.8303 9.18186L16.7555 9.12576H16.6433L16.4937 9.16316L16.475 9.21926L16.4002 9.25666V9.31276H16.288L16.1197 9.35016L16.0636 9.23796L16.3067 9.16316L16.3628 9.21926L16.4189 9.08836L16.5498 9.01356L16.6059 8.95746C16.5872 8.93876 16.5498 8.90136 16.5124 8.88266C16.5685 8.8546 16.6246 8.83123 16.6807 8.80785C16.7368 8.78448 16.7929 8.7611 16.849 8.73305C16.9238 8.78915 16.9986 8.84526 17.0734 8.92006L18.2141 7.77934L18.1393 7.70454C18.2515 7.53623 18.345 7.34923 18.4198 7.14353L18.5694 7.42403L18.9434 7.05002L18.8125 6.84432L19.0182 6.80692L18.5881 6.28331V6.09631C18.5881 5.5727 18.4198 5.08649 18.1393 4.65638L18.2889 4.61898L18.3637 4.54418L19.2239 5.01169L19.4857 5.31089L19.6166 5.7597L19.5792 5.8906L19.7849 5.9093L19.9345 5.96541L19.8971 6.15241L20.9818 5.06779C19.4296 3.53436 17.3913 2.58065 15.2221 2.37494C15.2408 2.30014 15.2595 2.20664 15.2782 2.11314L15.2969 2.05704C20.2899 2.59935 24.0673 6.78822 24.1047 11.8186ZM23.8429 11.7812C23.8242 9.36887 22.8705 7.05002 21.2062 5.29219L20.0467 6.43291C20.1963 6.60121 20.346 6.76953 20.4769 6.93782L20.8883 7.27443L21.2249 7.74194L21.5241 8.24685L21.5054 8.34035L21.3932 8.28425L21.3745 8.32165C21.9168 9.38757 22.1973 10.5844 22.216 11.7812H23.8429ZM19.5231 7.38663L19.1304 7.36793L18.6816 7.81674C18.906 8.04114 19.1117 8.30295 19.28 8.56475L19.3548 8.35905L19.4483 8.41515L19.4296 8.69565L19.5792 8.63955L19.6353 8.69565L19.5231 8.75175L19.5605 8.84526L19.5418 8.86396L19.4483 8.82656C19.467 8.86396 19.4904 8.90603 19.5138 8.94811C19.5372 8.99018 19.5605 9.03226 19.5792 9.06966L19.7101 9.05096L19.8036 9.18186V9.36886L19.9345 9.55587L19.8597 9.66807L20.0655 10.0795H20.1964L20.1215 9.59327L20.0842 9.31276L19.9345 8.90136L19.7288 8.47125L19.3735 7.94764L19.3922 7.87284L19.7475 8.11594L19.6914 8.17204L19.5792 8.11594L20.0467 8.77045L20.2338 9.40627L20.3086 9.94858L20.2151 10.4535L20.1402 10.547C20.2338 10.9584 20.2899 11.3698 20.2899 11.7812H21.9168C21.8981 10.7153 21.655 9.66807 21.2062 8.69565L20.9257 8.78916L20.2338 7.98504L20.1215 8.00374L19.5792 7.66714L19.6166 7.49883L19.5231 7.38663ZM19.1117 11.0332L18.8125 11.1828L18.9995 11.2763L18.9808 11.3698L18.7938 11.3885L18.719 11.4446L18.6816 11.5194L18.5133 11.6503L18.532 11.8186H19.9532C19.9532 11.5194 19.9345 11.2389 19.8784 10.9584L19.654 11.2576V11.108L19.8036 10.6405C19.7943 10.5937 19.7849 10.5517 19.7756 10.5096C19.7662 10.4675 19.7569 10.4254 19.7475 10.3787L19.6914 10.6218L19.6353 10.7527L19.467 10.8462L19.4109 10.9958L19.1117 11.0332ZM17.0173 10.0234L16.8677 10.0608L17.0734 10.1169L17.1108 10.1917L17.1669 10.0234H17.1108L17.0547 9.91117L17.1856 9.89247L17.3352 10.0047L17.3913 9.81767C17.2978 9.68677 17.2043 9.55587 17.0921 9.42497L16.9238 9.59327L16.8677 9.89247L17.0173 9.98598V10.0234ZM17.1295 15.3343L17.4848 15.4465L17.5222 15.3717L17.41 15.2595L17.1856 15.1473L16.9051 14.9416C16.8303 15.0164 16.7368 15.0912 16.6433 15.1473L16.8303 15.2221L17.0173 15.3717L17.1295 15.3343ZM18.4572 8.04114L17.2978 9.18186C17.4287 9.33146 17.5596 9.49977 17.6531 9.66807H17.8401L17.7653 9.57457C17.784 9.57457 17.9149 9.53717 17.9149 9.53717L18.0458 9.57457L17.9336 9.61197L17.8962 9.66807L18.0084 9.76157L18.3637 10.173L18.4198 10.1543V10.0982H18.5133L18.5507 10.2852L18.4759 10.3039L18.4198 10.2104L18.3263 10.2665L18.3824 10.3974L18.532 10.5283L18.6816 10.3787L18.7377 10.1543L18.9621 10.0795L19.28 10.3787L19.1678 10.4348L19.1117 10.7527L19.0182 10.8836H19.1678L19.2613 10.921L19.3548 10.8088L19.467 10.7527L19.5044 10.5096L19.654 10.4161L19.7288 10.3039C19.654 10.0421 19.5605 9.81767 19.4483 9.57457L19.0182 9.29406V9.03226L19.1678 8.99486C18.9621 8.65825 18.719 8.34035 18.4572 8.04114ZM17.7279 15.1473L17.8775 15.2969L18.1767 14.9042L18.3076 15.4091L18.2328 15.6335L18.4011 15.8018C19.3548 14.792 19.9158 13.4829 19.9719 12.0991H18.719L18.9434 12.5479L19.2239 12.604L19.2426 12.7723L19.3174 12.9032L18.9247 13.0154L18.7751 13.0902H18.532L18.4011 13.0341L18.3263 13.0528L18.4011 13.165L18.3076 13.2772L18.2702 13.2398L18.1954 13.352L18.0458 13.4081C17.9523 13.6138 17.8401 13.8195 17.7092 14.0065L17.784 14.0252L17.8214 13.913L17.971 13.9691L18.0271 14.1749L18.0458 14.3806L17.9523 14.605L17.9897 14.6985L17.8401 14.9977L17.7279 15.1473ZM19.2239 12.604L19.4857 12.5105L19.5231 12.6788L19.4483 12.7162L19.2239 12.604ZM18.2702 18.1393L18.1019 18.4572C18.6255 18.158 19.1117 17.8027 19.5418 17.3726L18.3824 16.2319C18.3357 16.2693 18.2889 16.3114 18.2422 16.3534C18.1954 16.3955 18.1487 16.4376 18.1019 16.475L18.2141 16.662H18.4011L18.6442 16.9238L18.4011 17.2417L18.2515 17.5596L18.4385 17.6718V17.784L18.2141 17.9897L18.2702 18.1393ZM19.6727 16.7929L19.5418 16.9425L19.8223 17.1108C21.1314 15.7457 21.8981 13.9317 21.9542 12.043H20.3273C20.2712 13.5203 19.6727 14.9042 18.6629 15.9701L19.1491 16.475L19.2052 16.4189L19.2239 16.1384L19.28 15.914L19.5418 16.0075L19.4857 16.1197L19.5605 16.1571L19.6727 16.7929ZM22.216 12.0991C22.1599 14.0813 21.3745 15.9701 19.9906 17.3913L21.1314 18.5507C22.8144 16.8116 23.7868 14.5115 23.8429 12.0991H22.216ZM10.0421 15.6335C10.0982 15.6943 10.1543 15.755 10.2104 15.8205L11.3698 14.6798C10.6966 13.9691 10.3039 13.0715 10.2478 12.0991H9.96727L10.0421 12.23L9.96727 12.7162L10.0047 13.0528V13.1837L10.0608 13.2585L10.0234 13.4455H9.96727L9.85507 13.2211L9.79897 13.0341L9.83637 12.9967L9.89247 13.0715L9.98597 13.0154L9.83637 12.6975L9.87377 12.6227L9.94857 12.23L9.89247 12.1178H9.51847L9.44366 12.2487H9.21926L9.12576 12.4544L9.21926 12.6414L9.14446 12.8845L9.35016 12.978L9.57457 13.4268L9.53717 13.6512L9.72417 14.0252L9.76157 14.6424L9.92987 15.0351L9.87377 15.4465C9.92987 15.5119 9.98597 15.5727 10.0421 15.6335ZM8.99486 12.8845L9.14446 12.6414L8.99486 12.4918L9.10706 12.0991H8.62085C8.63746 12.3316 8.66882 12.5494 8.70183 12.7787L8.71435 12.8658L8.73305 12.8845H8.99486ZM9.72417 11.2202L9.68677 11.5381L9.85507 11.7812H10.2291C10.2291 11.5942 10.2478 11.4072 10.2852 11.2202L10.2478 11.1641L9.91117 11.108L9.72417 11.2202ZM11.4072 12.7162L11.3324 12.7349L11.0332 12.5479H10.8088L10.5844 12.3048C10.6779 13.1089 11.0332 13.8756 11.5942 14.4554L12.7349 13.2772C12.5853 13.1089 12.4544 12.9219 12.3609 12.7162L12.2861 13.0715L12.1552 13.165L12.1739 13.2211L12.0056 13.3146L11.8934 13.0902L12.1365 13.0341L12.0056 12.8471L11.8747 12.6975L11.7438 12.9219L11.7625 13.0902L11.5194 12.9406L11.6129 12.8658L11.4072 12.7162ZM11.295 9.16316L10.1543 8.00374C9.18186 9.03226 8.63955 10.3787 8.62085 11.7812H9.35016L9.40626 11.5194L9.59327 11.3137L9.51847 11.1828L9.87377 10.5283L10.1169 10.547L10.36 10.36H10.4348L10.6031 10.2478L10.6405 10.173L10.4535 10.2291L10.2291 10.2665L10.3974 10.0982H10.4535L10.6218 10.0421H10.6966C10.8462 9.72417 11.0519 9.42497 11.295 9.16316ZM9.03226 16.8677L8.65825 16.662L8.48995 16.8116C8.60214 16.9425 8.71437 17.0734 8.84525 17.2043L9.10706 16.9238L9.03226 16.8677ZM8.34034 12.5666C8.32164 12.417 8.30295 12.2487 8.30295 12.0991H6.69472C6.71342 12.8284 6.82562 13.539 7.05002 14.2123H7.27443L7.70454 14.0626L7.68583 13.3333L8.09724 12.8097L8.13464 12.604L8.34034 12.5666ZM6.60121 14.1749L6.69472 14.1936C6.48901 13.5203 6.37681 12.8097 6.35811 12.0991H4.76858C4.82468 14.5115 5.7971 16.8303 7.49883 18.5881L8.63955 17.4474C8.20944 17.0173 7.83544 16.5311 7.51753 16.0075L7.46143 16.2506L7.27443 16.1945L6.97522 15.6896L6.84432 15.6522L6.73212 15.5026V15.3156L6.69472 15.2969L6.58251 15.3717L6.32071 15.2969L6.30201 15.1473L6.20851 15.0912V15.353L6.15241 15.3343L5.9093 14.9603L5.741 14.9416L5.7784 15.0912L5.7223 15.1473L5.7784 15.4091L6.04021 15.914L5.9467 15.8766L5.7784 15.6148L5.42309 14.7733L5.36699 14.3058L5.4792 14.1L5.7784 13.9691L5.8906 14.0626L5.7784 14.1561L6.20851 14.231L6.05891 14.0439L6.50771 14.0813L6.60121 14.1749ZM8.54605 6.39551L7.40533 5.25479C5.7036 7.01262 4.74988 9.35016 4.73118 11.7812H6.35811C6.37681 9.78027 7.16222 7.85414 8.54605 6.39551Z" fill="black"/>
<path d="M19.0556 4.50678L19.1491 4.67508L19.1304 4.80598L18.8873 4.63768L18.6816 4.52548L18.8499 4.39458L19.0556 4.50678Z" fill="black"/>
<path d="M13.539 11.0706C13.2398 10.9023 13.0715 10.7153 13.0715 10.4348C13.0715 10.1543 13.2211 9.96728 13.4829 9.83637H13.5016C13.5016 9.85282 13.5032 9.89497 13.5055 9.95436L13.5056 9.95579C13.5111 10.0992 13.5203 10.3418 13.5203 10.5657L13.4455 10.5844L13.352 10.7714L13.539 10.9584V11.0706Z" fill="black"/>
<path d="M16.0634 18.7565C15.8577 18.0833 15.3902 17.728 14.8853 17.4662L14.904 16.8303C15.5211 17.1482 16.1569 17.6345 16.0634 18.7565Z" fill="black"/>
<path d="M18.2702 6.115C18.2702 5.10519 17.5409 3.96447 15.727 3.57176C15.54 3.53436 15.353 3.51566 15.1847 3.51566C15.1847 3.66526 15.166 4.02057 15.166 4.02057C15.166 4.08234 15.1603 4.23478 15.1552 4.37183C15.1511 4.48366 15.1473 4.58537 15.1473 4.61898C15.2595 4.61898 15.3717 4.63768 15.5026 4.67508C16.5498 4.91818 16.9238 5.53529 16.9238 6.115C16.9238 7.08742 16.101 7.44273 15.0912 7.72323L14.7546 7.81673C14.4554 7.89154 14.1375 7.96634 13.8196 8.04114C13.7635 8.05984 13.7074 8.07386 13.6513 8.08789C13.5952 8.10191 13.539 8.11594 13.483 8.13464C12.3609 8.47125 11.3885 9.01355 11.3885 10.3974C11.3885 11.7812 12.4918 12.2861 13.5578 12.6227C13.5578 12.4286 13.5532 12.2346 13.5486 12.0383C13.5438 11.8373 13.5391 11.634 13.5391 11.4259C13.0715 11.2015 12.7349 10.9023 12.7349 10.4161C12.7349 9.92987 13.0341 9.64937 13.5017 9.42496C13.5577 9.40627 13.6138 9.38289 13.6699 9.35952C13.726 9.33615 13.7822 9.31276 13.8383 9.29406C14.1001 9.20056 14.3993 9.12576 14.7172 9.05096L15.0538 8.97615C16.5685 8.62085 18.2702 8.15334 18.2702 6.115Z" fill="black"/>
<path d="M13.6516 16.9051C13.2402 16.6806 12.8288 16.3814 12.8288 15.8204C12.8288 15.3155 13.2215 15.0163 13.6142 14.8293C13.7264 14.7732 13.8386 14.7171 13.9508 14.6797L14.9606 14.3431C15.2411 14.2309 15.6151 14.0252 15.6151 13.6699C15.6151 13.3894 15.372 13.2024 14.998 13.0528C14.998 12.8938 15.0027 12.6975 15.0074 12.5011C15.012 12.3048 15.0167 12.1084 15.0167 11.9495C15.9143 12.2674 16.7184 12.6601 16.7184 13.6699C16.7184 14.6797 15.7647 14.9976 14.9419 15.2407C14.9045 15.2532 14.8692 15.2656 14.8339 15.2781C14.7632 15.3031 14.6926 15.328 14.6053 15.3529C14.3809 15.4277 14.1565 15.5025 13.9508 15.596C13.8012 15.6521 13.6516 15.7643 13.6329 15.9326C13.6329 15.9383 13.6346 16.0224 13.6371 16.1392L13.6371 16.1436C13.6427 16.4098 13.6516 16.8404 13.6516 16.9051Z" fill="black"/>
<path fill-rule="evenodd" clip-rule="evenodd" d="M13.3898 3.66526C13.0532 3.77746 12.7166 3.90837 12.3987 4.07667C12.3299 4.09838 12.2556 4.1166 12.1767 4.13592C11.848 4.21642 11.4408 4.31614 11.0336 4.76858C10.8653 4.95559 10.7157 5.16129 10.5661 5.38569C10.4831 5.51019 10.4404 5.67498 10.3996 5.83215C10.3669 5.95829 10.3355 6.07952 10.2856 6.17111C10.192 6.30201 10.1546 6.45161 10.1546 6.60121C10.1172 6.73212 10.0611 6.86302 9.96765 6.95652C9.79934 7.16222 9.55624 7.25573 9.29443 7.21833C9.48144 7.27443 9.68714 7.25573 9.85544 7.18092C9.80857 7.30593 9.77474 7.444 9.74307 7.57329L9.72454 7.64843C9.85544 7.31183 10.0424 7.01262 10.3043 6.76952C10.4165 6.78822 10.6596 6.78822 11.0897 6.54511C11.5759 6.26461 12.3239 5.7971 12.5296 5.5166C12.754 5.21739 13.0532 4.99299 13.4085 4.86208C13.4085 4.60918 13.403 4.37816 13.398 4.16607C13.3937 3.98617 13.3898 3.81973 13.3898 3.66526ZM11.2393 5.6101L10.9775 5.6662L11.3515 5.08649L11.7068 5.10519L11.2393 5.6101Z" fill="black"/>
<path d="M14.1559 15.8392C14.2307 15.8205 14.3616 15.7644 14.399 15.7457C14.4738 15.727 14.586 15.6709 14.586 15.6709C14.586 15.6709 14.4925 20.2712 14.4925 20.3273C14.4925 21.2249 14.0437 21.2062 14.0437 20.3273C14.0437 20.2627 14.008 18.1981 13.9859 16.9221C13.9761 16.3514 13.9689 15.9385 13.9689 15.9327C13.9689 15.914 14.0811 15.8579 14.1559 15.8392Z" fill="black"/>
<path d="M13.9314 14.3244C14.081 14.2683 14.2119 14.2309 14.3428 14.1935L14.6233 14.1187C14.6233 13.8569 14.6981 10.0982 14.7168 9.42495C14.5939 9.4591 14.4759 9.49075 14.3639 9.52082C14.1692 9.57307 13.9922 9.62058 13.8379 9.66805C13.8566 10.173 13.9314 13.913 13.9314 14.3244Z" fill="black"/>
<path d="M35.007 5.9841H34.9883L33.9224 11.8373H32.4451L31.0612 4.69378H32.2394L33.1931 10.2104H33.2118L34.2403 4.69378H35.755L36.7648 10.2104H36.7835L37.7747 4.69378H38.8967L37.4941 11.8373H35.9981L35.007 5.9841Z" fill="black"/>
<path fill-rule="evenodd" clip-rule="evenodd" d="M43.1975 9.2006C43.1975 7.05006 42.0193 6.48905 40.9908 6.48905C39.9623 6.48905 38.7842 7.05006 38.7842 9.2006C38.7842 11.4072 39.9623 11.9308 40.9908 11.9308C42.0193 11.9308 43.1975 11.4072 43.1975 9.2006ZM41.9445 9.2006C41.9445 10.0982 41.7762 11.0332 40.9908 11.0332C40.2054 11.0332 40.0184 10.0795 40.0184 9.2006C40.0184 8.32169 40.2054 7.38667 40.9908 7.38667C41.7762 7.38667 41.9445 8.30299 41.9445 9.2006Z" fill="black"/>
<path d="M43.9461 7.44277C43.9461 7.14357 43.9461 6.86306 43.9087 6.56386H44.9933C45.012 6.88176 45.0307 7.21837 45.0307 7.53627H45.0494C45.199 7.12487 45.573 6.48905 46.321 6.48905C46.383 6.48905 46.4321 6.50189 46.4897 6.51693C46.5016 6.52002 46.514 6.52326 46.5267 6.52645V7.70458C46.4145 7.66717 46.3023 7.64848 46.1901 7.64848C45.6852 7.64848 45.1429 7.96638 45.1429 8.9575V11.8373H43.9461V7.44277Z" fill="black"/>
<path d="M48.5275 4.17013H47.312V11.856H48.5275V4.17013Z" fill="black"/>
<path fill-rule="evenodd" clip-rule="evenodd" d="M53.5581 4.17013V10.9396C53.5581 11.2388 53.5581 11.5381 53.5955 11.8373H52.4735C52.4361 11.5568 52.4361 11.295 52.4361 11.0144H52.3987C52.193 11.5755 51.6507 11.9495 51.071 11.9121C49.8181 11.9121 49.3132 10.6591 49.3132 9.20051C49.3132 7.48008 49.9677 6.47027 51.0523 6.47027C51.6133 6.45156 52.1369 6.78817 52.3426 7.31178H52.3613V4.17013H53.5581ZM51.3889 10.9957C52.0995 10.9957 52.3426 10.1916 52.3426 9.20051C52.3426 8.172 52.0621 7.42398 51.4076 7.42398C50.7531 7.42398 50.4913 8.11589 50.4913 9.16311C50.51 10.3786 50.697 10.9957 51.3889 10.9957Z" fill="black"/>
<path d="M58.7936 4.69381H57.5407V11.856H58.7936V8.69568H60.8133V11.8373H62.0662V4.69381H60.8133V7.59236H58.7936V4.69381Z" fill="black"/>
<path fill-rule="evenodd" clip-rule="evenodd" d="M66.6853 11.5942C66.2178 11.8186 65.7129 11.9308 65.1893 11.9308C63.5624 11.9308 62.8705 10.7153 62.8705 9.29406C62.8705 7.72324 63.6559 6.50771 64.9275 6.50771C66.0121 6.50771 66.9284 7.16223 66.9284 9.31276V9.55587H64.0112C64.0112 10.4535 64.3478 10.9958 65.2828 10.9958C65.7503 11.0145 66.2178 10.8836 66.5918 10.5844L66.6853 11.5942ZM65.769 8.75175C65.769 7.81674 65.4698 7.34923 64.9275 7.34923C64.2917 7.34923 64.0299 8.05984 64.0299 8.75175H65.769Z" fill="black"/>
<path fill-rule="evenodd" clip-rule="evenodd" d="M69.6213 6.48901C69.0603 6.48901 68.518 6.61992 68.0318 6.88172L68.0692 7.89154C68.4619 7.57363 68.9481 7.40533 69.453 7.38663C70.145 7.38663 70.3881 7.87284 70.3881 8.39645V8.58345H70.145C68.6115 8.58345 67.5082 8.93876 67.5082 10.3787V10.4722C67.5269 11.295 68.1814 11.9495 69.0042 11.9308C69.7335 11.9308 70.1076 11.5568 70.4068 11.1267H70.4255C70.4255 11.3698 70.4442 11.5942 70.5003 11.8373H71.6223C71.5662 11.5194 71.5475 11.2202 71.5475 10.9023V8.60215C71.5475 7.29313 71.1735 6.48901 69.6213 6.48901ZM70.2946 9.25666H70.4255V9.55587C70.4255 10.4909 70.1637 11.0519 69.4343 11.0519H69.3408C68.9294 11.0145 68.6115 10.6592 68.6489 10.2478C68.6489 9.48107 69.266 9.25666 70.2946 9.25666Z" fill="black"/>
<path d="M72.7256 4.17017H73.9411V11.856H72.7256V4.17017Z" fill="black"/>
<path d="M76.6526 5.08649L75.4371 5.4792V6.56382H74.633V7.49883H75.4371V10.3787C75.4371 11.482 75.942 11.9121 76.8396 11.9121C77.1201 11.9308 77.4007 11.856 77.6438 11.7438V10.8462C77.5128 10.921 77.3632 10.9584 77.1949 10.9584C76.8396 10.9584 76.6526 10.7901 76.6526 10.2291V7.49883H77.6624V6.56382H76.6526V5.08649Z" fill="black"/>
<path d="M79.4951 4.17017V7.25573H79.5138C79.7195 6.91912 80.0187 6.50772 80.7668 6.50772C81.9075 6.50772 82.2441 7.40533 82.2441 8.47125V11.856H81.0286V8.67695C81.0286 7.87284 80.8416 7.53623 80.3367 7.53623C79.7008 7.53623 79.4764 8.09724 79.4764 8.77046V11.8373H78.2609V4.17017H79.4951Z" fill="black"/>
<path fill-rule="evenodd" clip-rule="evenodd" d="M36.4469 17.4287C36.4469 14.8481 35.1566 13.7447 33.7354 13.7447C32.3142 13.7447 31.0238 14.8481 31.0238 17.4287C31.0238 20.0094 32.3142 21.1127 33.7354 21.1127C35.1566 21.1127 36.4469 20.0094 36.4469 17.4287ZM35.1566 17.41C35.1566 19.3735 34.5208 20.0842 33.7354 20.0842C32.9313 20.0842 32.3142 19.3735 32.3142 17.41C32.3142 15.4465 32.95 14.7359 33.7354 14.7359C34.5208 14.7359 35.1566 15.4465 35.1566 17.41Z" fill="black"/>
<path d="M37.251 16.5872C37.251 16.288 37.251 16.0075 37.2136 15.7083H38.2982C38.2982 15.8672 38.3076 16.0262 38.3169 16.1851C38.3263 16.3441 38.3356 16.503 38.3356 16.662H38.3543C38.504 16.2506 38.878 15.6148 39.626 15.6148C39.6879 15.6148 39.7371 15.6276 39.7946 15.6426L39.8155 15.6481L39.8317 15.6522V16.8303C39.7195 16.7929 39.6073 16.7742 39.4951 16.7742C39.0089 16.7742 38.4478 17.0921 38.4478 18.0645V20.9444H37.2323L37.251 16.5872Z" fill="black"/>
<path fill-rule="evenodd" clip-rule="evenodd" d="M42.076 22.2534C41.5524 22.2347 41.0475 22.0851 40.5987 21.8046L40.5239 22.9079C41.0662 23.1323 41.6459 23.2445 42.2443 23.2445C44.0769 23.2445 44.5632 22.0664 44.5632 20.4207V16.5311C44.5632 16.2693 44.5819 15.9889 44.6005 15.7084L43.5159 15.7082L43.5126 15.7578C43.4951 16.0197 43.4785 16.2672 43.4785 16.5311H43.4411C43.1793 16.0636 42.8427 15.6334 42.1134 15.6334C40.8044 15.6334 40.2995 16.9051 40.2995 18.3637C40.2995 20.4955 41.3467 20.9817 42.0573 20.9817C42.8427 20.9817 43.198 20.4955 43.385 20.0841H43.4037V20.589C43.4037 21.4305 43.2167 22.2534 42.076 22.2534ZM43.5346 18.2889C43.5346 19.4857 43.2354 20.0654 42.4687 20.0654C42.076 20.0654 41.6833 19.5418 41.6833 18.3076C41.6833 17.223 41.9264 16.6246 42.5622 16.6059C43.1419 16.5872 43.5346 17.1856 43.5346 18.2889Z" fill="black"/>
<path fill-rule="evenodd" clip-rule="evenodd" d="M45.8906 16.0262C46.3768 15.7644 46.9191 15.6335 47.4801 15.6335C49.0322 15.6335 49.4062 16.4376 49.4062 17.7466V20.0467C49.4062 20.3647 49.4249 20.6639 49.481 20.9818H48.3964C48.3403 20.7387 48.3216 20.5143 48.3216 20.2712H48.3029C48.0037 20.7013 47.6297 21.0753 46.9004 21.0753C46.0776 21.094 45.4231 20.4395 45.4044 19.6166V19.5231C45.4044 18.0832 46.5077 17.7279 48.0411 17.7279H48.2842V17.5409C48.2842 17.0173 48.0411 16.5311 47.3492 16.5311C46.8443 16.5498 46.3581 16.7181 45.9654 17.036L45.8906 16.0262ZM48.1533 18.4198C47.1248 18.4198 46.5077 18.6442 46.5077 19.4109C46.4703 19.8223 46.7882 20.1776 47.1996 20.215H47.2931C48.0224 20.215 48.2842 19.654 48.2842 18.719V18.4198H48.1533Z" fill="black"/>
<path d="M50.5657 15.7083C50.6031 16.0075 50.6031 16.288 50.6031 16.5872L50.5657 20.9818H51.7812V17.9149C51.7812 17.2417 52.0056 16.6807 52.6414 16.6807C53.1463 16.6807 53.3334 17.0173 53.3334 17.8214V20.9818H54.5489V17.5783C54.5489 16.5124 54.2123 15.6148 53.0715 15.6148C52.2674 15.6148 51.9121 16.1945 51.7438 16.5124H51.7251C51.7251 16.3815 51.7158 16.246 51.7064 16.1105C51.6971 15.9749 51.6877 15.8391 51.6877 15.7083H50.5657Z" fill="black"/>
<path d="M55.6706 13.483H56.9235V14.7359H55.6706V13.483Z" fill="black"/>
<path d="M55.6893 15.727H56.9048V21.0005H55.6893V15.727Z" fill="black"/>
<path d="M60.1779 16.6806L58.0273 19.8971V21.0004H61.4495V20.028H59.2803L61.3934 16.8115V15.7269H58.1022V16.6806H60.1779Z" fill="black"/>
<path fill-rule="evenodd" clip-rule="evenodd" d="M62.59 16.0262C63.0762 15.7644 63.6185 15.6335 64.1795 15.6335C65.7316 15.6335 66.1056 16.4376 66.1056 17.7466V20.0467C66.1056 20.3647 66.1243 20.6639 66.1804 20.9818H65.0771C65.021 20.7387 65.0023 20.5143 65.0023 20.2712H64.9836C64.6844 20.7013 64.3104 21.0753 63.5811 21.0753C62.7583 21.094 62.1038 20.4395 62.0851 19.6166V19.5231C62.0851 18.0832 63.1884 17.7279 64.7218 17.7279H64.9649V17.5409C64.9649 17.0173 64.7218 16.5311 64.0299 16.5311C63.525 16.5498 63.0388 16.7181 62.6461 17.036L62.59 16.0262ZM64.9649 18.4198H64.8527C63.8242 18.4198 63.2071 18.6442 63.2071 19.4109C63.1697 19.8223 63.4876 20.1776 63.899 20.215H63.9925C64.7218 20.215 64.9836 19.654 64.9836 18.719L64.9649 18.4198Z" fill="black"/>
<path d="M68.705 14.2496L67.4895 14.6424L67.5082 15.727H66.7041V16.662H67.5082V19.5418C67.5082 20.6452 68.0131 21.0753 68.9107 21.0753C69.1912 21.094 69.453 21.0192 69.7148 20.907V20.0093C69.5652 20.0842 69.4156 20.1215 69.2473 20.1215C68.892 20.1215 68.705 19.9532 68.705 19.3922V16.662H69.7148V15.727H68.705V14.2496Z" fill="black"/>
<path d="M70.5379 13.483H71.7908V14.7359H70.5379V13.483Z" fill="black"/>
<path d="M70.6875 15.727H71.903V21.0005H70.6875V15.727Z" fill="black"/>
<path fill-rule="evenodd" clip-rule="evenodd" d="M77.2512 18.345C77.2512 16.1945 76.0731 15.6334 75.0446 15.6334C74.0161 15.6334 72.8193 16.1945 72.8379 18.345C72.8379 20.5703 74.0161 21.0752 75.0446 21.0752C76.0731 21.0752 77.2512 20.5516 77.2512 18.345ZM75.9983 18.3637C75.9983 19.2426 75.83 20.1776 75.0446 20.1776C74.2592 20.1776 74.0722 19.2426 74.0722 18.3637C74.0722 17.4848 74.2592 16.5498 75.0446 16.5498C75.83 16.5498 75.9983 17.4848 75.9983 18.3637Z" fill="black"/>
<path d="M78.2983 16.5872C78.2983 16.3047 78.2817 16.039 78.2641 15.7584L78.2609 15.7083H79.3829C79.4016 15.9701 79.4203 16.2506 79.4203 16.5124H79.439C79.6073 16.1945 79.9626 15.6148 80.7668 15.6148C81.9075 15.6148 82.2441 16.5124 82.2441 17.5783V20.9818H81.0286V17.8214C81.0286 17.0173 80.8416 16.6807 80.3367 16.6807C79.7008 16.6807 79.4764 17.2417 79.4764 17.9149V20.9818H78.2609L78.2983 16.5872Z" fill="black"/>
<path d="M2.67416 27.957H82.2628V28.3497H2.67416V27.957Z" fill="black"/>
<path d="M8.93878 36.9705L7.42405 31.5849H6.54513L4.9743 36.9705L3.49698 31.5849H2.67416L4.5255 38.0552H5.40441L6.95654 32.6695L8.48997 38.0552H9.36888L11.2389 31.5849H10.4722L8.93878 36.9705Z" fill="black"/>
<path d="M12.7165 34.3712H15.7086V31.6036H16.5127V38.0552H15.7086V35.1006H12.7165V38.0552H11.9124V31.6036H12.7165V34.3712Z" fill="black"/>
<path fill-rule="evenodd" clip-rule="evenodd" d="M22.6272 32.5199C22.3841 32.202 22.0849 31.9589 21.7296 31.7719C20.9255 31.3979 19.9905 31.3979 19.1864 31.7719C18.8311 31.9402 18.5319 32.202 18.2888 32.5199C18.0457 32.8378 17.8773 33.1931 17.7651 33.5858C17.6529 33.9972 17.5968 34.4086 17.5968 34.8388C17.5968 35.2876 17.6529 35.7364 17.7838 36.1852C17.896 36.5779 18.0644 36.9332 18.3262 37.2511C18.5693 37.5503 18.8685 37.7934 19.2238 37.943C19.6165 38.1113 20.0279 38.1861 20.458 38.1861C20.8694 38.1861 21.2995 38.1113 21.6922 37.943C22.0475 37.7934 22.3467 37.5503 22.5898 37.2511C22.8329 36.9332 23.0199 36.5779 23.1321 36.1852C23.263 35.7551 23.3191 35.2876 23.3191 34.8388C23.3191 34.4086 23.263 33.9972 23.1508 33.5858C23.0573 33.1931 22.8703 32.8378 22.6272 32.5199ZM22.4028 35.7925C22.328 36.0917 22.1971 36.3722 22.0288 36.634C21.8605 36.8771 21.6361 37.0828 21.393 37.2324C20.8133 37.5316 20.1401 37.5316 19.5604 37.2324C19.2986 37.0828 19.0929 36.8771 18.9246 36.634C18.7563 36.3722 18.6254 36.0917 18.5506 35.7925C18.3823 35.1567 18.3823 34.5021 18.5506 33.8663C18.6254 33.5671 18.7563 33.2679 18.9246 33.0248C19.0742 32.8004 19.2799 32.6134 19.523 32.4638L19.5604 32.4451C20.1401 32.1459 20.8133 32.1459 21.393 32.4451C21.6548 32.5947 21.8792 32.8004 22.0288 33.0435C22.1971 33.3053 22.328 33.5858 22.4028 33.885C22.5711 34.5021 22.5711 35.1567 22.4028 35.7925Z" fill="black"/>
<path fill-rule="evenodd" clip-rule="evenodd" d="M26.1995 38.0552L28.855 31.6036H29.6778L32.2397 38.0552H31.3982L30.725 36.3722H27.6582L26.985 38.0552H26.1995ZM27.9948 35.6616H30.4632L29.229 32.5199L27.9948 35.6616Z" fill="black"/>
<path d="M33.7164 34.3525C33.8473 34.1842 34.0343 34.072 34.2213 33.9785C34.4457 33.8849 34.6888 33.8288 34.9319 33.8475C35.0815 33.8475 35.2498 33.8662 35.3994 33.9037C35.5677 33.9411 35.7173 33.9972 35.8856 34.072L35.9978 34.1094L36.0539 33.38L35.9978 33.3613C35.9043 33.3239 35.7734 33.2865 35.5864 33.2491C35.3433 33.193 35.1189 33.1743 34.8758 33.1743C34.5392 33.1743 34.2213 33.2304 33.9034 33.3613C33.6229 33.4735 33.361 33.6605 33.1553 33.8849C32.9496 34.1094 32.7813 34.3899 32.6878 34.6704C32.5756 34.9883 32.5195 35.3249 32.5195 35.6802C32.5195 35.9981 32.5569 36.316 32.6504 36.6152C32.7439 36.9144 32.8748 37.1762 33.0805 37.4193C33.2675 37.6437 33.5294 37.8494 33.7912 37.9616C34.0904 38.0925 34.4083 38.1486 34.7262 38.1486H34.801C35.0066 38.1486 35.2123 38.1299 35.418 38.1112C35.6015 38.0946 35.7702 38.0481 35.9505 37.9984L36.0165 37.9803L36.0726 37.9616L35.9978 37.251L35.8856 37.2884C35.7173 37.3445 35.5489 37.4006 35.3807 37.438C35.2124 37.4754 35.0441 37.4941 34.8758 37.4941C34.427 37.4941 33.9969 37.3071 33.7164 36.9705C33.5668 36.8022 33.4733 36.5965 33.3985 36.3908C33.3237 36.1664 33.2862 35.9233 33.2862 35.6615C33.2862 35.3997 33.3237 35.1566 33.3985 34.9135C33.4733 34.7078 33.5855 34.5208 33.7164 34.3525Z" fill="black"/>
<path fill-rule="evenodd" clip-rule="evenodd" d="M40.1679 35.007V37.5315C40.1779 37.611 40.1825 37.6905 40.1875 37.7755C40.1919 37.8506 40.1966 37.9301 40.2053 38.0178L40.224 38.1113H39.476V37.5502L39.3451 37.6811C39.2329 37.7934 39.102 37.8869 38.9711 37.9617C38.8402 38.0365 38.6906 38.0926 38.541 38.13C38.3914 38.1674 38.2418 38.1861 38.0922 38.1861H38.0174C37.7556 38.1861 37.5125 38.13 37.2694 38.0365C37.0824 37.943 36.9141 37.812 36.7832 37.6624C36.6897 37.5315 36.5962 37.3632 36.5588 37.1949C36.5214 37.064 36.5027 36.9331 36.5027 36.8022C36.484 36.4656 36.5962 36.129 36.8019 35.8485C36.9889 35.6241 37.2507 35.4371 37.5312 35.3436C37.8304 35.2314 38.1483 35.1753 38.4662 35.1566L38.5783 35.1507C38.8887 35.1341 39.1692 35.1192 39.4199 35.1192H39.4386V34.9696C39.4573 34.6704 39.3825 34.3712 39.2142 34.1281C39.0833 33.9598 38.8215 33.8663 38.4662 33.8663C38.2418 33.8663 38.0174 33.885 37.793 33.9411C37.5873 33.9972 37.3629 34.0907 37.1759 34.2216L37.045 34.3151V33.5484L37.1011 33.5297C37.1824 33.489 37.2638 33.4581 37.338 33.43C37.3662 33.4193 37.3933 33.4091 37.419 33.3988C37.5312 33.3614 37.6434 33.324 37.7743 33.3053C37.8869 33.2731 37.9994 33.2548 38.1001 33.2384L38.1483 33.2305C38.2044 33.2305 38.2605 33.2258 38.3166 33.2211C38.3727 33.2164 38.4288 33.2118 38.4849 33.2118C39.0646 33.2118 39.5134 33.3614 39.7752 33.6419C40.037 33.9224 40.1679 34.3899 40.1679 35.007ZM39.4386 35.7363H39.3638C39.2446 35.7363 39.1253 35.7408 39.0039 35.7454C38.8778 35.7502 38.7491 35.755 38.6158 35.755C38.3914 35.755 38.167 35.8111 37.9426 35.8859C37.7743 35.9607 37.606 36.0729 37.4751 36.2038C37.3629 36.3534 37.2881 36.5404 37.3068 36.7461C37.2881 36.9892 37.3816 37.1949 37.5499 37.3258C37.7182 37.438 37.9426 37.4941 38.167 37.4941C38.4288 37.5128 38.6719 37.4567 38.8963 37.3258C39.0646 37.2323 39.1768 37.0827 39.2703 36.9144C39.3451 36.7461 39.4012 36.5778 39.4199 36.3908C39.4386 36.1851 39.4386 36.0355 39.4386 35.9233V35.7363Z" fill="black"/>
<path fill-rule="evenodd" clip-rule="evenodd" d="M44.432 33.8476C44.3757 33.7631 44.2981 33.6892 44.2234 33.6179C44.1988 33.5946 44.1746 33.5715 44.1515 33.5484C44.0206 33.4362 43.8523 33.3427 43.7027 33.2866C43.497 33.2118 43.2913 33.1744 43.0856 33.1744C42.7677 33.1744 42.4685 33.2305 42.188 33.3614C41.9449 33.4736 41.7205 33.6606 41.5709 33.885C41.4025 34.1281 41.2903 34.3899 41.2155 34.6704C41.1407 34.9883 41.1033 35.3249 41.1033 35.6615C41.1033 35.9981 41.1407 36.316 41.2155 36.6339C41.2903 36.9144 41.4212 37.1763 41.5896 37.4194C41.7579 37.6438 41.9636 37.8308 42.2067 37.9617C42.4685 38.0926 42.7677 38.1674 43.0669 38.1487H43.123C43.4222 38.1487 43.7027 38.0739 43.9645 37.943C44.1515 37.8308 44.3011 37.6812 44.432 37.5129V38.0365H45.1613V31.0986H44.432V33.8476ZM44.1328 34.4273C44.2263 34.6143 44.3011 34.82 44.3572 35.0257C44.4507 35.4371 44.4507 35.8859 44.3572 36.2973C44.3198 36.503 44.245 36.7087 44.1328 36.8957C44.0393 37.064 43.9084 37.2137 43.7401 37.3259C43.5718 37.4381 43.3661 37.4942 43.1417 37.4942C42.9173 37.5129 42.7116 37.4381 42.5246 37.3259C42.3563 37.2137 42.2254 37.064 42.1319 36.8957C42.0384 36.7087 41.9636 36.5217 41.9262 36.316V36.2973C41.8514 35.8672 41.8514 35.4184 41.9262 34.9696C41.9636 34.7639 42.0384 34.5582 42.1319 34.3899C42.2254 34.2216 42.3563 34.072 42.5246 33.9785C42.7116 33.8663 42.9173 33.8102 43.1417 33.8102C43.3474 33.8102 43.5531 33.8663 43.7214 33.9785C43.9084 34.0907 44.0393 34.2403 44.1328 34.4273Z" fill="black"/>
<path fill-rule="evenodd" clip-rule="evenodd" d="M48.9201 33.3614C49.1632 33.4923 49.3689 33.6606 49.5185 33.885C49.6681 34.1094 49.7803 34.3712 49.8551 34.6517C49.9299 34.9509 49.9673 35.2501 49.9673 35.5493V35.9233H46.8256C46.8256 36.129 46.863 36.316 46.9191 36.503C46.9752 36.69 47.0687 36.877 47.1996 37.0266C47.3305 37.1762 47.4801 37.3071 47.6485 37.3819C47.8355 37.4754 48.0599 37.5129 48.2656 37.5129C48.359 37.5129 48.4712 37.4942 48.5833 37.4755L48.6257 37.4685C48.7276 37.4519 48.8404 37.4334 48.9388 37.4007C48.9949 37.382 49.0463 37.3633 49.0977 37.3446C49.1491 37.3259 49.2006 37.3071 49.2567 37.2884C49.3133 37.2743 49.3807 37.2387 49.4426 37.206C49.4624 37.1955 49.4817 37.1853 49.4998 37.1762L49.6307 37.1014V37.8869L49.5746 37.9056C49.3689 37.9991 49.1258 38.0552 48.9014 38.0926C48.677 38.13 48.4339 38.1487 48.2095 38.1487H48.1534C47.8168 38.1487 47.4988 38.0926 47.1996 37.9617C46.9191 37.8495 46.6947 37.6625 46.5077 37.438C46.3394 37.1949 46.2085 36.9331 46.1337 36.6339C46.0589 36.316 46.0215 35.9981 46.0215 35.6615C46.0215 35.3249 46.0776 34.9883 46.1711 34.6704C46.2646 34.3899 46.3955 34.1281 46.5825 33.885C46.7508 33.6606 46.9752 33.4923 47.2183 33.3614C47.7607 33.0996 48.3778 33.0996 48.9201 33.3614ZM46.8069 35.2501H49.1632C49.1632 35.1005 49.1445 34.9322 49.0884 34.7826C49.051 34.6143 48.9949 34.446 48.9014 34.2964C48.8266 34.1468 48.6957 34.0346 48.5648 33.9598C48.4152 33.8663 48.2469 33.8289 48.0786 33.8289C47.8916 33.8289 47.7046 33.8663 47.555 33.9598C47.4053 34.0533 47.2744 34.1655 47.1622 34.3151C47.05 34.4647 46.9565 34.633 46.9004 34.8013C46.8443 34.9509 46.8069 35.1005 46.8069 35.2501Z" fill="black"/>
<path d="M56.7742 33.6419C56.6433 33.4923 56.475 33.3801 56.288 33.3053C56.0823 33.2118 55.8578 33.1744 55.6334 33.1744C55.0163 33.1557 54.474 33.4923 54.1748 33.9972C54.1374 33.885 54.0813 33.7915 54.0253 33.698C53.9318 33.5671 53.8195 33.4549 53.6886 33.3801C53.5764 33.3053 53.4455 33.2492 53.2959 33.2118C53.1837 33.1931 53.0528 33.1744 52.9406 33.1744C52.7162 33.1744 52.5105 33.1931 52.2861 33.2679C52.1365 33.324 51.9869 33.4175 51.856 33.511C51.7438 33.6045 51.6503 33.698 51.5755 33.8476V33.3053H50.8462L50.8649 33.3988C50.8836 33.5484 50.9023 33.7354 50.9023 33.9411V38.0739H51.6316V35.4558C51.6316 35.2127 51.669 34.9696 51.7251 34.7265C51.7812 34.5395 51.8747 34.3712 51.9869 34.2403C52.1739 33.9972 52.4731 33.8663 52.7723 33.8663C52.9219 33.8663 53.0715 33.885 53.2024 33.9411C53.3146 33.9972 53.4081 34.072 53.4642 34.1655C53.539 34.2777 53.5951 34.3899 53.6138 34.5021C53.6512 34.6517 53.6699 34.7826 53.6512 34.9322V38.0739H54.3805V35.4558C54.3805 35.2127 54.4179 34.9696 54.474 34.7265C54.5301 34.5395 54.6236 34.3899 54.7358 34.2403C54.8293 34.1281 54.9602 34.0159 55.1098 33.9598C55.2407 33.9037 55.3903 33.8663 55.5399 33.8663C55.6895 33.8663 55.8204 33.885 55.9514 33.9411C56.0636 33.9972 56.1571 34.072 56.2132 34.1655C56.2879 34.2777 56.3253 34.3899 56.3627 34.502C56.4001 34.6516 56.4189 34.7826 56.4189 34.9322V38.0739H57.1669V34.82C57.1669 34.5956 57.1295 34.3899 57.0734 34.1842C57.0173 33.9598 56.9051 33.7915 56.7742 33.6419Z" fill="black"/>
<path d="M59.7476 36.9705L61.0192 33.3053V33.324H61.7859L59.9159 38.7097C59.904 38.7413 59.8922 38.7737 59.8802 38.8066C59.8353 38.9295 59.7879 39.0592 59.7289 39.1772C59.6541 39.3268 59.5793 39.4764 59.4671 39.6073C59.3736 39.7195 59.2614 39.8317 59.1305 39.9065C58.9996 39.9813 58.8313 40.0187 58.6816 40.0187H58.663C58.4386 40.0187 58.2328 40 58.0271 39.9439L57.9523 39.9252L58.0271 39.252L58.1206 39.2894C58.158 39.2894 58.2141 39.3081 58.2702 39.3268C58.3638 39.3455 58.4386 39.3455 58.5134 39.3455C58.7004 39.3642 58.8687 39.2707 58.9622 39.1211C59.0931 38.8967 59.1866 38.6536 59.2614 38.4105L59.3736 38.0365L57.7092 33.3053H58.5134L59.7476 36.9705Z" fill="black"/>
</g>
</g>
<defs>
<clipPath id="clip0_8441_12972">
<rect width="82.2627" height="40" fill="white"/>
</clipPath>
</defs>
</svg>
