<svg width="24" height="25" viewBox="0 0 24 25" fill="none" xmlns="http://www.w3.org/2000/svg">
<g id="icon">
<path id="Vector" d="M16.6008 4.7002H7.40078C5.70078 4.7002 4.30078 6.1002 4.30078 7.8002V17.0002C4.30078 18.7002 5.70078 20.1002 7.40078 20.1002H16.6008C18.3008 20.1002 19.7008 18.7002 19.7008 17.0002V7.9002C19.8008 6.1002 18.4008 4.7002 16.6008 4.7002ZM16.7008 10.7002L11.2008 16.2002C10.9008 16.5002 10.5008 16.5002 10.3008 16.3002L10.2008 16.2002L7.30078 13.5002C7.00078 13.2002 7.00078 12.7002 7.30078 12.4002C7.60078 12.1002 8.10078 12.1002 8.40078 12.4002L10.7008 14.7002L15.7008 9.7002C16.0008 9.4002 16.5008 9.4002 16.8008 9.7002C17.0008 10.0002 17.0008 10.5002 16.7008 10.7002Z" fill="#00205C"/>
</g>
</svg>
