<svg width="24" height="25" viewBox="0 0 24 25" fill="none" xmlns="http://www.w3.org/2000/svg">
<g id="icon">
<rect y="0.5" width="24" height="24" rx="4" fill="#F9FCFF"/>
<path id="Vector" d="M16.6008 4.7002H7.40078C5.70078 4.7002 4.30078 6.1002 4.30078 7.8002V17.0002C4.30078 18.7002 5.70078 20.1002 7.40078 20.1002H16.6008C18.3008 20.1002 19.7008 18.7002 19.7008 17.0002V7.9002C19.8008 6.1002 18.4008 4.7002 16.6008 4.7002ZM18.2008 17.1002C18.2008 18.0002 17.5008 18.7002 16.6008 18.7002H7.40078C6.50078 18.7002 5.80078 18.0002 5.80078 17.1002V7.9002C5.80078 7.0002 6.50078 6.3002 7.40078 6.3002H16.6008C17.5008 6.3002 18.2008 7.0002 18.2008 7.9002V17.1002Z" fill="#0081FF"/>
</g>
</svg>
