<svg width="24" height="25" viewBox="0 0 24 25" fill="none" xmlns="http://www.w3.org/2000/svg">
<g id="icon">
<path id="Vector" d="M15.6 14.3999V13.4999C15.6 13.0999 16 12.6999 16.4 12.6999H17.3C17.7 12.6999 18.1 13.0999 18.1 13.4999V14.3999C18.1 14.7999 17.7 15.1999 17.3 15.1999H16.4C15.9 15.1999 15.6 14.8999 15.6 14.3999ZM16.4 19.2999H17.3C17.7 19.2999 18.1 18.8999 18.1 18.4999V17.5999C18.1 17.1999 17.7 16.7999 17.3 16.7999H16.4C16 16.7999 15.6 17.1999 15.6 17.5999V18.4999C15.6 18.8999 15.9 19.2999 16.4 19.2999ZM11.6 15.1999H12.5C12.9 15.1999 13.3 14.7999 13.3 14.3999V13.4999C13.3 13.0999 12.9 12.6999 12.5 12.6999H11.6C11.2 12.6999 10.8 13.0999 10.8 13.4999V14.3999C10.8 14.8999 11.1 15.1999 11.6 15.1999ZM6.69998 19.2999H7.59998C7.99998 19.2999 8.39998 18.8999 8.39998 18.4999V17.5999C8.39998 17.1999 7.99998 16.7999 7.59998 16.7999H6.69998C6.29998 16.7999 5.89998 17.1999 5.89998 17.5999V18.4999C5.89998 18.8999 6.29998 19.2999 6.69998 19.2999ZM11.6 19.2999H12.5C12.9 19.2999 13.3 18.8999 13.3 18.4999V17.5999C13.3 17.1999 12.9 16.7999 12.5 16.7999H11.6C11.2 16.7999 10.8 17.1999 10.8 17.5999V18.4999C10.8 18.8999 11.1 19.2999 11.6 19.2999ZM21.4 7.6999V19.3999C21.4 21.0999 20 22.4999 18.3 22.4999H5.69998C3.99998 22.4999 2.59998 21.0999 2.59998 19.3999V7.6999C2.59998 5.9999 3.99998 4.5999 5.69998 4.5999H6.29998V3.1999C6.29998 2.7999 6.69998 2.4999 7.09998 2.4999C7.49998 2.4999 7.89998 2.7999 7.89998 3.2999V4.5999H16.1V3.1999C16.1 2.7999 16.4 2.3999 16.9 2.3999C17.4 2.3999 17.7 2.6999 17.7 3.1999V4.4999H18.3C20 4.5999 21.4 5.9999 21.4 7.6999ZM19.9 10.2999H4.09998V19.3999C4.09998 20.2999 4.79998 20.9999 5.69998 20.9999H18.3C19.2 20.9999 19.9 20.2999 19.9 19.3999V10.2999ZM6.69998 15.1999H7.59998C7.99998 15.1999 8.39998 14.7999 8.39998 14.3999V13.4999C8.39998 13.0999 7.99998 12.6999 7.59998 12.6999H6.69998C6.29998 12.6999 5.89998 13.0999 5.89998 13.4999V14.3999C5.89998 14.8999 6.29998 15.1999 6.69998 15.1999Z" fill="#00205C"/>
</g>
</svg>
