<svg width="16" height="16" viewBox="0 0 16 16" fill="none" xmlns="http://www.w3.org/2000/svg">
<g id="Crossmark" clip-path="url(#clip0_12708_6722)">
<path id="Union" fill-rule="evenodd" clip-rule="evenodd" d="M12.6627 3.9844C12.8566 3.78779 12.8544 3.47122 12.6578 3.27731C12.4612 3.0834 12.1446 3.08559 11.9507 3.2822L7.99699 7.291L4.04962 3.28248C3.85586 3.08572 3.53929 3.08328 3.34253 3.27704C3.14578 3.4708 3.14334 3.78737 3.3371 3.98413L7.29472 8.00305L3.33737 12.0155C3.14346 12.2121 3.14565 12.5287 3.34226 12.7226C3.53887 12.9165 3.85544 12.9143 4.04935 12.7177L7.99644 8.71565L11.9438 12.7241C12.1375 12.9209 12.4541 12.9233 12.6509 12.7296C12.8476 12.5358 12.85 12.2192 12.6563 12.0225L8.69872 8.00359L12.6627 3.9844Z" fill="white"/>
</g>
<defs>
<clipPath id="clip0_12708_6722">
<rect width="16" height="16" fill="white"/>
</clipPath>
</defs>
</svg>
