<svg width="24" height="24" viewBox="0 0 24 24" fill="none" xmlns="http://www.w3.org/2000/svg">
<g id="dragging indicator">
<g id="Union">
<path d="M10 19.4C10 18.3 9.1 17.4 8 17.4C6.9 17.4 6 18.3 6 19.4C6 20.5 6.9 21.4 8 21.4C9.1 21.4 10 20.5 10 19.4Z" fill="#434343"/>
<path d="M8 14.2C6.9 14.2 6 13.3 6 12.2C6 11.1 6.9 10.2 8 10.2C9.1 10.2 10 11.1 10 12.2C10 13.3 9.1 14.2 8 14.2Z" fill="#434343"/>
<path d="M8 7C6.9 7 6 6.1 6 5C6 3.9 6.9 3 8 3C9.1 3 10 3.9 10 5C10 6.1 9.1 7 8 7Z" fill="#434343"/>
<path d="M17 19.4C17 18.3 16.1 17.4 15 17.4C13.9 17.4 13 18.3 13 19.4C13 20.5 13.9 21.4 15 21.4C16.1 21.4 17 20.5 17 19.4Z" fill="#434343"/>
<path d="M15 14.2C13.9 14.2 13 13.3 13 12.2C13 11.1 13.9 10.2 15 10.2C16.1 10.2 17 11.1 17 12.2C17 13.3 16.1 14.2 15 14.2Z" fill="#434343"/>
<path d="M15 7C13.9 7 13 6.1 13 5C13 3.9 13.9 3 15 3C16.1 3 17 3.9 17 5C17 6.1 16.1 7 15 7Z" fill="#434343"/>
</g>
</g>
</svg>
