<svg width="24" height="25" viewBox="0 0 24 25" fill="none" xmlns="http://www.w3.org/2000/svg">
<g id="Email">
<path id="Vector" d="M18.85 4.75H5.15C3.41 4.75 2 6.16 2 7.9V17.1C2 18.84 3.41 20.25 5.15 20.25H18.85C20.59 20.25 22 18.84 22 17.1V7.9C22 6.16 20.59 4.75 18.85 4.75ZM15.15 12.36L20.34 7.2C20.44 7.41 20.5 7.64 20.5 7.89V17.09C20.5 17.23 20.48 17.36 20.44 17.49L15.14 12.35L15.15 12.36ZM18.85 6.25C18.95 6.25 19.05 6.26 19.15 6.28L12.82 12.56C12.34 13.04 11.66 13.04 11.17 12.56L4.85 6.28C4.95 6.26 5.05 6.25 5.15 6.25H18.85ZM3.56 17.51C3.53 17.38 3.5 17.24 3.5 17.1V7.9C3.5 7.65 3.56 7.42 3.66 7.21L8.92 12.43L3.56 17.5V17.51ZM5.15 18.75C4.94 18.75 4.74 18.71 4.55 18.63L9.98 13.49L10.11 13.62C10.65 14.15 11.32 14.42 12 14.42C12.68 14.42 13.35 14.15 13.88 13.62L14.08 13.42L19.45 18.63C19.26 18.7 19.06 18.75 18.85 18.75H5.15Z" fill="#434343"/>
</g>
</svg>
