<svg width="65" height="64" viewBox="0 0 65 64" fill="none" xmlns="http://www.w3.org/2000/svg">
<g id="icon" clip-path="url(#clip0_6253_26586)">
<path id="Vector" d="M57.0121 47.1936C56.8649 46.6112 56.2825 46.176 55.7001 46.176L52.5001 45.7408L51.0473 42.8288C50.7593 42.2464 50.1769 41.9584 49.5945 41.9584C49.0121 41.9584 48.4297 42.2464 48.2825 42.8288L46.8361 45.7408L43.6297 46.176C43.0473 46.3232 42.6121 46.6112 42.4649 47.1936C42.3177 47.776 42.4649 48.3584 42.9001 48.7936L45.2297 50.976L44.6473 54.176C44.5001 54.7584 44.7945 55.3408 45.2297 55.776C45.5177 55.9232 45.8121 56.064 46.1001 56.064C46.3881 56.064 46.6825 56.064 46.8297 55.9168L49.7417 54.464L52.6537 55.9168C53.2361 56.2048 53.8185 56.2048 54.2537 55.7696C54.6889 55.4816 54.9833 54.8992 54.8361 54.3168L54.2537 51.1168L56.5833 48.9344C57.0121 48.3584 57.1593 47.6352 57.0121 47.1936ZM30.4969 51.9936H12.8073C8.92252 51.9936 5.75452 48.8256 5.75452 44.9408V28.5824C5.75452 26.528 6.64412 24.5824 8.19932 23.2448L27.0345 6.9952C29.6585 4.7296 33.6265 4.7296 36.2505 7.0016L55.0473 23.2512C56.6025 24.5952 57.4921 26.5344 57.4921 28.5888V30.9888C57.4921 32.1344 56.5641 33.056 55.4185 33.056C54.2729 33.056 53.3449 32.128 53.3449 30.9888V28.5888C53.3449 27.744 52.9801 26.944 52.3401 26.3872L33.5433 10.1312C32.4553 9.1904 30.8233 9.1968 29.7417 10.1312L10.9065 26.3808C10.2665 26.9312 9.89532 27.7376 9.89532 28.5824V44.9408C9.89532 46.5472 11.2009 47.8528 12.8073 47.8528H30.5033C31.6489 47.8528 32.5705 48.7808 32.5705 49.9264C32.5641 51.0656 31.6425 51.9936 30.4969 51.9936ZM49.7417 34.7136C41.8441 34.7136 35.4185 41.1392 35.4185 49.0368C35.4185 56.9344 41.8441 63.3664 49.7417 63.3664C57.6393 63.3664 64.0649 56.9408 64.0649 49.0432C64.0649 41.1456 57.6393 34.7136 49.7417 34.7136ZM49.7417 59.616C43.9113 59.616 39.1625 54.8672 39.1625 49.0368C39.1625 43.2064 43.9113 38.4576 49.7417 38.4576C55.5721 38.4576 60.3209 43.2064 60.3209 49.0368C60.3145 54.8672 55.5721 59.616 49.7417 59.616Z" fill="#00205C"/>
</g>
<defs>
<clipPath id="clip0_6253_26586">
<rect width="64" height="64" fill="white" transform="translate(0.5)"/>
</clipPath>
</defs>
</svg>
