<svg width="24" height="24" viewBox="0 0 24 24" fill="none" xmlns="http://www.w3.org/2000/svg">
<g id="History">
<path id="Union" fill-rule="evenodd" clip-rule="evenodd" d="M4.0209 14.4901C4.23702 14.4897 4.45131 14.3964 4.5993 14.2164C4.60085 14.2145 4.6024 14.2127 4.60393 14.2108L5.84926 12.6964C6.11235 12.3765 6.06629 11.9039 5.74636 11.6408C5.42643 11.3777 4.9538 11.4237 4.6907 11.7437L4.57081 11.8895C4.62988 7.83475 7.93115 4.57007 12 4.57007C16.1058 4.57007 19.43 7.89428 19.43 12.0001C19.43 16.1059 16.1058 19.4301 12 19.4301C9.15908 19.4301 6.69629 17.8334 5.44077 15.4953C5.24482 15.1303 4.79013 14.9933 4.4252 15.1893C4.06027 15.3853 3.92329 15.8399 4.11924 16.2049C5.62373 19.0067 8.58094 20.9301 12 20.9301C16.9342 20.9301 20.93 16.9343 20.93 12.0001C20.93 7.06586 16.9342 3.07007 12 3.07007C7.0699 3.07007 3.07665 7.05921 3.07002 11.9878L2.9764 11.9108C2.65647 11.6477 2.18384 11.6938 1.92074 12.0137C1.65765 12.3336 1.70372 12.8062 2.02364 13.0693L3.53906 14.3156C3.54057 14.3168 3.54208 14.3181 3.5436 14.3193C3.62531 14.3865 3.71697 14.4335 3.81257 14.461C3.88074 14.4806 3.95092 14.4902 4.0209 14.4901ZM12.03 8.01006C12.4442 8.01006 12.78 8.34584 12.78 8.76006V11.4431L16.6876 12.7487C17.0805 12.88 17.2926 13.3049 17.1613 13.6977C17.0301 14.0906 16.6052 14.3027 16.2123 14.1714L11.9023 12.7314C11.8775 12.7231 11.8534 12.7137 11.8301 12.7031C11.5129 12.6156 11.28 12.325 11.28 11.9801V8.76006C11.28 8.34584 11.6158 8.01006 12.03 8.01006Z" fill="#A0A0A0"/>
</g>
</svg>
