<svg width="24" height="24" viewBox="0 0 24 24" fill="none" xmlns="http://www.w3.org/2000/svg">
<g id="Information">
<g id="Union">
<path d="M12 9.08C12.41 9.08 12.75 8.74 12.75 8.33C12.75 7.92 12.41 7.58 12 7.58C11.59 7.58 11.25 7.92 11.25 8.33C11.25 8.74 11.59 9.08 12 9.08Z" fill="#434343"/>
<path d="M12 10.25C12.4142 10.25 12.75 10.5858 12.75 11V15.66C12.75 16.0742 12.4142 16.41 12 16.41C11.5858 16.41 11.25 16.0742 11.25 15.66V11C11.25 10.5858 11.5858 10.25 12 10.25Z" fill="#434343"/>
<path fill-rule="evenodd" clip-rule="evenodd" d="M12 2C6.47579 2 2 6.47579 2 12C2 17.5242 6.47579 22 12 22C17.5242 22 22 17.5242 22 12C22 6.47579 17.5242 2 12 2ZM3.5 12C3.5 7.30421 7.30421 3.5 12 3.5C16.6958 3.5 20.5 7.30421 20.5 12C20.5 16.6958 16.6958 20.5 12 20.5C7.30421 20.5 3.5 16.6958 3.5 12Z" fill="#434343"/>
</g>
</g>
</svg>
