<svg width="16" height="16" viewBox="0 0 16 16" fill="none" xmlns="http://www.w3.org/2000/svg">
<g clip-path="url(#clip0_6273_8811)">
<path d="M14.6673 5.73407C14.64 5.73908 14.6417 5.7653 14.6333 5.7837C14.5418 5.97389 14.3818 6.06146 14.1927 6.02465C14.007 5.98784 13.886 5.84115 13.881 5.63256C13.8671 5.03466 13.6975 4.48863 13.3356 4.01009C12.8354 3.34861 12.1673 2.98496 11.3341 2.90521C11.3391 2.96935 11.3882 2.98887 11.4167 3.02233C11.5578 3.18742 11.5561 3.4161 11.4111 3.56501C11.2622 3.71728 11.0224 3.72564 10.8618 3.57059C10.5935 3.31124 10.3298 3.04743 10.0704 2.77916C9.91374 2.61686 9.91765 2.39376 10.0771 2.23034C10.3348 1.96653 10.5963 1.70662 10.8595 1.44839C10.9058 1.40266 10.9672 1.37142 11.0218 1.3335H11.2042C11.5806 1.47962 11.6152 1.71332 11.3113 2.11879C11.367 2.12493 11.4178 2.13106 11.468 2.13553C12.9614 2.26771 14.2385 3.38598 14.5681 4.84447C14.6054 5.01012 14.6093 5.18246 14.6673 5.34365V5.73407Z" fill="#434343"/>
<path d="M3.44708 2.95918C3.7124 2.95918 3.97856 2.95064 4.24303 2.9626C4.38038 2.96857 4.41365 2.91905 4.40426 2.79353C4.39658 2.69533 4.4017 2.59372 4.41791 2.49638C4.46483 2.20947 4.72076 1.99771 5.00485 2.00027C5.29917 2.00283 5.54912 2.2274 5.58837 2.52455C5.59178 2.55102 5.59434 2.57749 5.59519 2.60396C5.60827 2.84135 5.73112 2.96004 5.96373 2.96004C6.43465 2.96004 6.90641 2.95406 7.37732 2.9626C7.72027 2.96857 7.96426 3.19742 7.99497 3.51933C8.02056 3.79428 7.81667 4.09143 7.53941 4.13669C7.34491 4.16828 7.14187 4.16145 6.94395 4.15291C6.81086 4.14694 6.76053 4.18963 6.74517 4.32113C6.65901 5.05035 6.42782 5.72834 5.98677 6.32264C5.8989 6.44133 5.99359 6.45414 6.05928 6.48317C6.48157 6.66761 6.92347 6.77349 7.38415 6.80765C7.76975 6.83668 8.02824 7.10822 7.99753 7.44465C7.96511 7.80072 7.67079 8.027 7.28007 7.99711C6.50289 7.93734 5.76923 7.73411 5.10125 7.32169C5.02105 7.27216 4.96731 7.28155 4.89053 7.32766C4.22084 7.73497 3.48803 7.94075 2.71 7.99796C2.32355 8.02614 2.02667 7.79047 2.00193 7.43525C1.97889 7.1048 2.23482 6.83668 2.60763 6.8085C3.06745 6.77349 3.51021 6.67188 3.93335 6.48829C4.02975 6.44645 4.08605 6.42169 3.99563 6.29873C3.57846 5.73175 3.34727 5.08707 3.26537 4.39115C3.24319 4.19988 3.17921 4.1273 2.98555 4.15377C2.85503 4.1717 2.72024 4.1606 2.58801 4.15548C2.26553 4.14181 2.02069 3.90529 2.00107 3.59106C1.9823 3.28964 2.21179 3.01981 2.53 2.96943C2.54962 2.96601 2.56924 2.96345 2.58971 2.96345C2.87465 2.96345 3.16044 2.96345 3.44538 2.96345V2.96174L3.44708 2.95918ZM5.00143 5.64465C5.31452 5.22369 5.47661 4.76174 5.54912 4.26221C5.56022 4.18536 5.54742 4.15291 5.46296 4.15377C5.15158 4.15718 4.8402 4.15548 4.52881 4.15377C4.45971 4.15377 4.43839 4.17682 4.44862 4.2494C4.5237 4.7532 4.68323 5.22198 5.00143 5.6438V5.64465Z" fill="#434343"/>
<path d="M14 13.3823C14.0017 13.6626 13.818 13.9044 13.5625 13.9727C13.289 14.0462 13.0215 13.9428 12.8822 13.6908C12.7447 13.4413 12.6173 13.1858 12.4985 12.9278C12.4515 12.8261 12.3926 12.7987 12.2866 12.7996C11.4295 12.8039 10.5724 12.8047 9.71443 12.7996C9.5965 12.7996 9.53925 12.8389 9.49139 12.9423C9.38372 13.1772 9.26408 13.4062 9.14444 13.6352C8.96926 13.9701 8.63941 14.0881 8.3275 13.9326C8.02242 13.7805 7.91133 13.4284 8.07626 13.0986C8.86244 11.5214 9.65376 9.94668 10.4408 8.37027C10.5587 8.1336 10.7433 7.99689 11.0057 8.00031C11.2595 8.00372 11.4381 8.13872 11.5526 8.36856C12.3396 9.94412 13.1283 11.5188 13.9171 13.0935C13.965 13.1892 13.9914 13.2917 13.9991 13.3832L14 13.3823ZM11.8303 11.5974C11.5509 11.0386 11.28 10.4986 10.998 9.93386C10.7125 10.5063 10.4434 11.0472 10.169 11.5974H11.8303Z" fill="#434343"/>
<path d="M4.69171 13.084C4.59412 12.9864 4.52107 12.9172 4.48984 12.8185C4.43909 12.6567 4.50155 12.4732 4.63706 12.3795C4.77927 12.2814 4.98059 12.2786 5.10774 12.4002C5.39326 12.6724 5.67321 12.9512 5.94424 13.2379C6.0792 13.3807 6.0686 13.6038 5.92974 13.7477C5.6682 14.0193 5.40107 14.2865 5.12949 14.5486C4.97334 14.6992 4.738 14.6914 4.58855 14.5464C4.43686 14.3986 4.43351 14.161 4.5813 13.9953C4.61253 13.9602 4.64599 13.9267 4.69116 13.8793C4.52609 13.8559 4.37384 13.8408 4.22439 13.8124C2.717 13.524 1.59776 12.36 1.36912 10.8402C1.34569 10.6862 1.33956 10.529 1.33621 10.3733C1.33175 10.1363 1.5024 9.95672 1.72268 9.9556C1.94352 9.95449 2.1058 10.1291 2.11639 10.3694C2.1677 11.5457 2.73039 12.3818 3.79777 12.8748C4.06935 13.0003 4.35879 13.0644 4.69116 13.084H4.69171Z" fill="#434343"/>
</g>
<defs>
<clipPath id="clip0_6273_8811">
<rect width="13.3333" height="13.3333" fill="white" transform="translate(1.33398 1.3335)"/>
</clipPath>
</defs>
</svg>
