<svg width="56" height="41" viewBox="0 0 56 41" fill="none" xmlns="http://www.w3.org/2000/svg">
<path d="M52.4415 3.06725C44.8255 0.020846 36.1151 0.0400452 28.5055 3.13765C28.1919 3.26565 27.8527 3.26565 27.5391 3.13125C19.9999 -0.087954 11.3023 -0.260755 3.64155 2.64485C1.68315 3.38725 0.364746 5.33925 0.364746 7.50245V33.704C0.364746 35.368 1.16475 36.9488 2.49595 37.9472C3.80795 38.9264 5.45275 39.2208 6.99515 38.76C13.1967 36.9168 19.9807 37.2944 25.9135 39.8224C26.5983 40.1168 27.3151 40.2576 28.0319 40.2576C28.7167 40.2576 29.4079 40.1232 30.0671 39.8608C35.9935 37.4544 42.7583 37.1664 48.8703 39.08C50.4383 39.5664 52.1087 39.2784 53.4527 38.2992C54.8223 37.2944 55.6415 35.6816 55.6415 33.9856V7.89924C55.6351 5.77444 54.3487 3.82885 52.4415 3.06725ZM14.9887 33.4608C11.8719 33.4608 8.78715 33.9088 5.81115 34.7984C5.43355 34.9072 5.14555 34.7728 4.96635 34.632C4.67195 34.4144 4.49915 34.0688 4.49915 33.704V7.50245C4.49915 7.05445 4.74875 6.64485 5.11355 6.51045C11.7759 3.98245 19.3599 4.13605 25.9199 6.93285C25.9263 6.93285 25.9327 6.93924 25.9391 6.93924V35.4256C22.4319 34.1456 18.7647 33.4608 14.9887 33.4608ZM51.5007 33.9728C51.5007 34.3568 51.3151 34.728 50.9951 34.9584C50.8351 35.0736 50.5087 35.2592 50.0927 35.1248C43.5967 33.096 36.4799 33.2496 30.0607 35.4704V6.96485C36.6783 4.27685 44.2751 4.25764 50.8991 6.90724C51.2511 7.04804 51.4943 7.45764 51.4943 7.89924V33.9728H51.5007ZM48.2303 12.264C48.0383 13.256 47.1743 13.9408 46.2015 13.9408C46.0735 13.9408 45.9455 13.928 45.8111 13.9024C42.7071 13.3136 39.4559 13.2496 36.3391 13.7232C35.2191 13.8896 34.1567 13.1216 33.9839 11.9888C33.8175 10.8624 34.5919 9.80645 35.7183 9.63365C39.2895 9.08965 43.0207 9.16005 46.5791 9.83845C47.7055 10.0624 48.4415 11.144 48.2303 12.264ZM48.2303 20.4112C48.0383 21.4032 47.1743 22.088 46.2015 22.088C46.0735 22.088 45.9391 22.0752 45.8111 22.0496C42.7135 21.4608 39.4559 21.3968 36.3455 21.8704C35.2255 22.0368 34.1631 21.2688 33.9903 20.136C33.8239 19.0096 34.5983 17.9536 35.7247 17.7808C39.3023 17.2368 43.0335 17.3072 46.5919 17.9856C47.7055 18.2032 48.4415 19.2848 48.2303 20.4112ZM48.2303 28.552C48.0383 29.544 47.1743 30.2288 46.2015 30.2288C46.0735 30.2288 45.9391 30.216 45.8111 30.1904C42.7199 29.5952 39.4751 29.5376 36.3455 30.0112C35.2255 30.1712 34.1631 29.4096 33.9903 28.2768C33.8239 27.1504 34.5983 26.0944 35.7247 25.9216C39.3215 25.3776 43.0399 25.448 46.5919 26.1264C47.7055 26.3504 48.4415 27.4256 48.2303 28.552Z" fill="#00205C"/>
</svg>
