<svg width="14" height="14" viewBox="0 0 14 14" fill="none" xmlns="http://www.w3.org/2000/svg">
<path d="M2.05 7.46667C2.05 6.46667 2.85 5.66667 3.85 5.66667C4.85 5.66667 5.65 6.46667 5.65 7.46667C5.65 8.46667 4.85 9.26667 3.85 9.26667C2.85 9.26667 2.05 8.46667 2.05 7.46667ZM5.18333 9.93333H2.65C1.51667 9.93333 0.583333 10.8667 0.583333 12V12.3333C0.583333 12.8 0.983333 13.2 1.45 13.2H6.45C6.91667 13.2 7.31667 12.8 7.31667 12.3333V12C7.25 10.8667 6.31667 9.93333 5.18333 9.93333ZM13.9167 2.2C13.7833 1.4 13.1167 0.799999 12.3167 0.799999C9.91667 0.799999 7.58333 0.799999 5.18333 0.799999C5.11667 0.799999 5.11667 0.799999 5.05 0.799999C4.25 0.866666 3.58333 1.46667 3.51667 2.2C3.45 2.6 3.51667 2.93333 3.51667 3.33333C3.51667 3.6 3.71667 3.8 3.98333 3.8C4.25 3.8 4.45 3.6 4.45 3.33333C4.45 3.06667 4.45 2.8 4.45 2.53333C4.31667 2.06667 4.65 1.66667 5.18333 1.66667C6.31667 1.66667 7.51667 1.66667 8.65 1.66667C9.85 1.66667 10.9833 1.66667 12.1833 1.66667C12.65 1.66667 12.9833 1.93333 12.9833 2.4C12.9833 3.6 12.9833 4.8 12.9833 6C12.9833 6.4 12.65 6.73333 12.25 6.73333C12.05 6.73333 11.85 6.73333 11.65 6.73333C11.3833 6.73333 11.1833 6.93333 11.1833 7.2C11.1833 7.46667 11.3833 7.66667 11.65 7.66667C11.85 7.66667 11.9833 7.66667 12.1833 7.66667C13.1833 7.66667 13.9167 6.93333 13.9167 5.93333C13.9167 4.8 13.9167 3.66667 13.9167 2.46667C13.9167 2.4 13.9167 2.26667 13.9167 2.2ZM11.5167 3.8C11.5167 3.53333 11.3167 3.33333 10.9833 3.33333C10.1833 3.33333 9.45 3.33333 8.65 3.33333C7.85 3.33333 7.11667 3.33333 6.31667 3.33333C5.98333 3.33333 5.78333 3.53333 5.78333 3.8C5.78333 4.06667 5.98333 4.26667 6.31667 4.26667C7.85 4.26667 9.45 4.26667 10.9833 4.26667C11.3167 4.26667 11.5167 4.06667 11.5167 3.8ZM8.65 4.8C7.85 4.8 7.11667 4.8 6.31667 4.8C6.05 4.8 5.85 5 5.85 5.26667C5.85 5.53333 6.05 5.73333 6.31667 5.73333C6.71667 5.73333 7.05 5.73333 7.45 5.73333C7.85 5.73333 8.25 5.73333 8.58333 5.73333C8.85 5.73333 9.05 5.53333 9.05 5.26667C9.05 5 8.91667 4.8 8.65 4.8Z" fill="#434343"/>
</svg>
