<svg width="16" height="16" viewBox="0 0 16 16" fill="none" xmlns="http://www.w3.org/2000/svg">
<path fill-rule="evenodd" clip-rule="evenodd" d="M14.9999 13.9998C15.2999 14.2998 15.2999 14.7998 14.9999 15.0998C14.6999 15.3998 14.1999 15.3998 13.8999 15.0998L7.9999 9.0998L2.0999 15.0998C1.7999 15.3998 1.2999 15.3998 0.999902 15.0998C0.699902 14.7998 0.699902 14.2998 0.999902 13.9998L6.8999 7.9998L0.999902 1.9998C0.699902 1.6998 0.699902 1.1998 0.999902 0.899805C1.2999 0.599805 1.7999 0.599805 2.0999 0.899805L7.9999 6.8998L13.8999 0.899805C14.1999 0.599805 14.6999 0.599805 14.9999 0.899805C15.2999 1.1998 15.2999 1.6998 14.9999 1.9998L8.9999 7.9998L14.9999 13.9998Z" fill="#434343"/>
</svg>
