<svg width="17" height="16" viewBox="0 0 17 16" fill="none" xmlns="http://www.w3.org/2000/svg">
<g id="icon">
<path id="Vector" d="M15.1 3.2666C14.9 2.6666 14.3667 2.2666 13.7 2.2666C11.9667 2.2666 10.2334 2.2666 8.56671 2.2666C6.83338 2.2666 5.16671 2.2666 3.43338 2.2666C3.30004 2.2666 3.16671 2.2666 3.03338 2.2666C2.30004 2.4666 1.83338 2.99993 1.83338 3.73327C1.83338 5.59993 1.83338 7.4666 1.83338 9.33327C1.83338 10.2666 2.43338 10.8666 3.30004 10.8666C6.76671 10.8666 10.1667 10.8666 13.6334 10.8666C14.5 10.8666 15.1667 10.2666 15.1667 9.33327C15.1667 7.4666 15.1667 5.59993 15.1667 3.79993C15.1667 3.59993 15.1667 3.4666 15.1 3.2666ZM9.70004 6.99994C9.10004 7.4666 8.50004 7.93327 7.83338 8.39994C7.70004 8.53327 7.50004 8.53327 7.30004 8.4666C7.10004 8.39993 7.03338 8.19994 7.03338 7.99994C7.03338 7.53327 7.03338 7.0666 7.03338 6.59993C7.03338 6.13327 7.03338 5.6666 7.03338 5.19993C7.03338 4.99994 7.10004 4.79993 7.30004 4.73327C7.50004 4.59993 7.70004 4.6666 7.83338 4.79993C8.43338 5.2666 9.03338 5.73327 9.63338 6.19993C10.0334 6.39994 10.0334 6.73327 9.70004 6.99994ZM15.1667 12.6666C15.2334 12.9999 15.0334 13.2666 14.7 13.2666C14.3 13.2666 13.9667 13.2666 13.5667 13.2666C12.5667 13.2666 11.6334 13.2666 10.6334 13.2666C9.30004 13.2666 7.96671 13.2666 6.63338 13.2666C6.56671 13.2666 6.50004 13.2666 6.43338 13.3999C6.03338 13.9333 5.30004 13.9333 4.90004 13.3999C4.83338 13.3333 4.76671 13.3333 4.70004 13.3333C3.90004 13.3333 3.16671 13.3333 2.36671 13.3333C1.96671 13.3333 1.70004 12.9333 1.90004 12.5999C2.03338 12.3999 2.16671 12.3333 2.36671 12.3333C3.16671 12.3333 3.90004 12.3333 4.70004 12.3333C4.76671 12.3333 4.83338 12.3333 4.90004 12.2666C5.30004 11.7333 6.03338 11.7333 6.43338 12.2666C6.50004 12.3333 6.56671 12.3999 6.63338 12.3999C9.30004 12.3999 11.9667 12.3999 14.6334 12.3999C14.9 12.2666 15.1 12.3999 15.1667 12.6666Z" fill="#434343"/>
</g>
</svg>
