<svg width="20" height="20" viewBox="0 0 20 20" fill="none" xmlns="http://www.w3.org/2000/svg">
<path id="Vector" d="M18.325 6.9501L12.925 12.3501C11.425 13.8501 8.925 13.8501 7.425 12.3501C7.125 12.0501 7.125 11.5501 7.425 11.2501C7.725 10.9501 8.225 10.9501 8.525 11.2501C9.425 12.1501 11.025 12.1501 11.925 11.2501L17.325 5.8501C18.225 4.9501 18.225 3.3501 17.325 2.4501C16.425 1.5501 14.825 1.5501 13.925 2.4501L11.625 4.7501C11.325 5.0501 10.825 5.0501 10.525 4.7501C10.225 4.4501 10.225 3.9501 10.525 3.6501L12.825 1.3501C14.325 -0.149902 16.825 -0.149902 18.325 1.3501C19.825 2.8501 19.825 5.4501 18.325 6.9501ZM7.825 15.3501L5.525 17.6501C4.625 18.5501 3.025 18.5501 2.125 17.6501C1.225 16.7501 1.225 15.1501 2.125 14.2501L7.525 8.8501C8.425 7.9501 10.025 7.9501 10.925 8.8501C11.225 9.1501 11.725 9.1501 12.025 8.8501C12.325 8.5501 12.325 8.0501 12.025 7.7501C10.525 6.2501 8.025 6.2501 6.525 7.7501L1.125 13.1501C-0.375 14.6501 -0.375 17.1501 1.125 18.6501C2.625 20.1501 5.125 20.1501 6.625 18.6501L8.925 16.3501C9.225 16.0501 9.225 15.5501 8.925 15.2501C8.625 14.9501 8.125 15.0501 7.825 15.3501Z" fill="#F9FCFF"/>
</svg>
