<svg width="24" height="24" viewBox="0 0 24 24" fill="none" xmlns="http://www.w3.org/2000/svg">
<g id="Bold Text">
<rect width="24" height="24" rx="4" fill="#F9FCFF"/>
<path id="Vector" d="M15.5 11.4001C16.6 10.3001 17.2 8.9001 17.2 7.3001C17.2 4.2001 14.6 1.6001 11.5 1.6001H9C7.1 1.6001 5.5 3.2001 5.5 5.1001V18.9001C5.5 20.8001 7.1 22.4001 9 22.4001H12.8C15.9 22.4001 18.5 19.8001 18.5 16.7001V16.4001C18.5 14.3001 17.3 12.4001 15.5 11.4001ZM9 3.9001H11.5C13.4 3.9001 14.9 5.4001 14.9 7.3001C14.9 9.2001 13.4 10.7001 11.5 10.7001H7.8V5.1001C7.8 4.5001 8.3 3.9001 9 3.9001ZM12.8 20.1001H9C8.3 20.1001 7.8 19.6001 7.8 18.9001V13.0001H12.8C14.7 13.0001 16.2 14.5001 16.2 16.4001V16.7001C16.2 18.6001 14.7 20.1001 12.8 20.1001Z" fill="#00205C"/>
</g>
</svg>
