<svg width="24" height="24" viewBox="0 0 24 24" fill="none" xmlns="http://www.w3.org/2000/svg">
<g id="bulleted list">
<g id="Vector">
<path d="M21.0033 8L8.54426 8C8.0459 8 7.54754 7.625 7.54754 7C7.54754 6.375 7.92131 6 8.54426 6L21.0033 6C21.5016 6 22 6.375 22 7C22 7.625 21.5016 8 21.0033 8Z" fill="#F9FCFF"/>
<path d="M4.2459 8L3.99672 8C3.49836 8 3 7.625 3 7C3 6.375 3.37377 6 3.99672 6L4.2459 6C4.74426 6 5.24262 6.375 5.24262 7C5.24262 7.625 4.74426 8 4.2459 8Z" fill="#F9FCFF"/>
<path d="M21.0033 13L8.54426 13C8.0459 13 7.54754 12.625 7.54754 12C7.54754 11.375 7.92131 11 8.54426 11L21.0033 11C21.5016 11 22 11.375 22 12C22 12.625 21.5016 13 21.0033 13Z" fill="#F9FCFF"/>
<path d="M4.2459 13L3.99672 13C3.49836 13 3 12.625 3 12C3 11.375 3.37377 11 3.99672 11L4.2459 11C4.74426 11 5.24262 11.375 5.24262 12C5.24262 12.625 4.74426 13 4.2459 13Z" fill="#F9FCFF"/>
<path d="M21.0033 18H8.54426C8.0459 18 7.54754 17.625 7.54754 17C7.54754 16.375 7.92131 16 8.54426 16L21.0033 16C21.5016 16 22 16.375 22 17C22 17.625 21.5016 18 21.0033 18Z" fill="#F9FCFF"/>
<path d="M4.2459 18H3.99672C3.49836 18 3 17.625 3 17C3 16.375 3.37377 16 3.99672 16H4.2459C4.74426 16 5.24262 16.375 5.24262 17C5.24262 17.625 4.74426 18 4.2459 18Z" fill="#F9FCFF"/>
</g>
</g>
</svg>
