<svg width="24" height="24" viewBox="0 0 24 24" fill="none" xmlns="http://www.w3.org/2000/svg">
<g id="italic Text">
<path id="Vector" d="M20.5001 4.80024C20.5001 5.40024 20.0001 5.90024 19.4001 5.90024H15.9001L10.5001 19.1002H13.7001C14.3001 19.1002 14.8001 19.6002 14.8001 20.3002C14.8001 20.9002 14.3001 21.4002 13.7001 21.4002H4.7001C4.1001 21.4002 3.6001 20.9002 3.6001 20.3002C3.6001 19.7002 4.1001 19.1002 4.7001 19.1002H8.0001L13.4001 5.90024H10.4001C9.8001 5.90024 9.3001 5.40024 9.3001 4.80024C9.3001 4.20024 9.8001 3.70024 10.4001 3.70024H19.3001C20.0001 3.60024 20.5001 4.10024 20.5001 4.80024Z" fill="#F9FCFF"/>
</g>
</svg>
