<svg width="24" height="24" viewBox="0 0 24 24" fill="none" xmlns="http://www.w3.org/2000/svg">
<g id="italic Text">
<rect width="24" height="24" rx="4" fill="#F9FCFF"/>
<path id="Vector" d="M20.5 4.80024C20.5 5.40024 20 5.90024 19.4 5.90024H15.9L10.5 19.1002H13.7C14.3 19.1002 14.8 19.6002 14.8 20.3002C14.8 20.9002 14.3 21.4002 13.7 21.4002H4.69998C4.09998 21.4002 3.59998 20.9002 3.59998 20.3002C3.59998 19.7002 4.09998 19.1002 4.69998 19.1002H7.99998L13.4 5.90024H10.4C9.79998 5.90024 9.29998 5.40024 9.29998 4.80024C9.29998 4.20024 9.79998 3.70024 10.4 3.70024H19.3C20 3.60024 20.5 4.10024 20.5 4.80024Z" fill="#00205C"/>
</g>
</svg>
