<svg width="24" height="24" viewBox="0 0 24 24" fill="none" xmlns="http://www.w3.org/2000/svg">
<g id="numbered list">
<g id="Vector">
<path d="M2.82235 10.5478C2.82235 10.8238 3.04555 11.047 3.32155 11.047H4.35835L3.02875 12.8662C2.86795 13.0846 2.84635 13.3726 2.96875 13.6126C3.09115 13.855 3.33595 14.0062 3.60715 14.0062H5.21515C5.49115 14.0062 5.71435 13.783 5.71435 13.507C5.71435 13.231 5.49115 13.0078 5.21515 13.0078H4.16395L5.49355 11.1886C5.65435 10.9702 5.67595 10.6822 5.55355 10.4422C5.43115 10.1998 5.18635 10.051 4.91515 10.051H3.31915C3.04555 10.0486 2.82235 10.2718 2.82235 10.5478Z" fill="#F9FCFF"/>
<path d="M3.05995 5.82941H3.79435V8.37821C3.79435 8.65421 4.01755 8.87741 4.29355 8.87741C4.56955 8.87741 4.79275 8.65421 4.79275 8.37821V5.54621C4.79275 5.15021 4.47115 4.82861 4.07515 4.82861H3.05755C2.78155 4.82861 2.55835 5.05181 2.55835 5.32781C2.56075 5.60621 2.78395 5.82941 3.05995 5.82941Z" fill="#F9FCFF"/>
<path d="M8.53915 7.99661H20.9975C21.4967 7.99661 21.9935 7.62221 21.9935 6.99581C21.9935 6.37181 21.4943 5.99501 20.9975 5.99501H8.53915C7.91515 5.99501 7.54315 6.36941 7.54315 6.99581C7.54315 7.62221 8.04235 7.99661 8.53915 7.99661Z" fill="#F9FCFF"/>
<path d="M20.9975 10.9966H8.53915C7.91515 10.9966 7.54315 11.371 7.54315 11.9974C7.54315 12.6214 8.04235 12.9982 8.53915 12.9982H20.9975C21.4967 12.9982 21.9935 12.6238 21.9935 11.9974C21.9959 11.3734 21.4967 10.9966 20.9975 10.9966Z" fill="#F9FCFF"/>
<path d="M5.12875 14.9974H3.15355C2.87755 14.9974 2.65435 15.2206 2.65435 15.4966C2.65435 15.7726 2.87755 15.9958 3.15355 15.9958H4.84555V16.4638H3.92635C3.65035 16.4638 3.42715 16.687 3.42715 16.963C3.42715 17.239 3.65035 17.4622 3.92635 17.4622H4.84555V17.9158H3.15355C2.87755 17.9158 2.65435 18.139 2.65435 18.415C2.65435 18.691 2.87755 18.9142 3.15355 18.9142H5.12875C5.52475 18.9142 5.84635 18.5926 5.84635 18.1966V15.715C5.84635 15.319 5.52475 14.9974 5.12875 14.9974Z" fill="#F9FCFF"/>
<path d="M20.9975 15.9982H8.53915C7.91515 15.9982 7.54315 16.3726 7.54315 16.999C7.54315 17.623 8.04235 17.9998 8.53915 17.9998H20.9975C21.4967 17.9998 21.9935 17.6254 21.9935 16.999C21.9959 16.3726 21.4967 15.9982 20.9975 15.9982Z" fill="#F9FCFF"/>
</g>
</g>
</svg>
