<svg width="24" height="24" viewBox="0 0 24 24" fill="none" xmlns="http://www.w3.org/2000/svg">
<g id="numbered list">
<rect width="24" height="24" rx="4" fill="#F9FCFF"/>
<g id="Vector">
<path d="M2.82235 10.5481C2.82235 10.8241 3.04555 11.0473 3.32155 11.0473H4.35835L3.02875 12.8665C2.86795 13.0849 2.84635 13.3729 2.96875 13.6129C3.09115 13.8553 3.33595 14.0065 3.60715 14.0065H5.21515C5.49115 14.0065 5.71435 13.7833 5.71435 13.5073C5.71435 13.2313 5.49115 13.0081 5.21515 13.0081H4.16395L5.49355 11.1889C5.65435 10.9705 5.67595 10.6825 5.55355 10.4425C5.43115 10.2001 5.18635 10.0513 4.91515 10.0513H3.31915C3.04555 10.0489 2.82235 10.2721 2.82235 10.5481Z" fill="#00205C"/>
<path d="M3.05995 5.82966H3.79435V8.37846C3.79435 8.65446 4.01755 8.87766 4.29355 8.87766C4.56955 8.87766 4.79275 8.65446 4.79275 8.37846V5.54646C4.79275 5.15046 4.47115 4.82886 4.07515 4.82886H3.05755C2.78155 4.82886 2.55835 5.05206 2.55835 5.32806C2.56075 5.60646 2.78395 5.82966 3.05995 5.82966Z" fill="#00205C"/>
<path d="M8.53915 7.99686H20.9975C21.4967 7.99686 21.9935 7.62246 21.9935 6.99606C21.9935 6.37206 21.4943 5.99526 20.9975 5.99526H8.53915C7.91515 5.99526 7.54315 6.36966 7.54315 6.99606C7.54315 7.62246 8.04235 7.99686 8.53915 7.99686Z" fill="#00205C"/>
<path d="M20.9975 10.9969H8.53915C7.91515 10.9969 7.54315 11.3713 7.54315 11.9977C7.54315 12.6217 8.04235 12.9985 8.53915 12.9985H20.9975C21.4967 12.9985 21.9935 12.6241 21.9935 11.9977C21.9959 11.3737 21.4967 10.9969 20.9975 10.9969Z" fill="#00205C"/>
<path d="M5.12875 14.9977H3.15355C2.87755 14.9977 2.65435 15.2209 2.65435 15.4969C2.65435 15.7729 2.87755 15.9961 3.15355 15.9961H4.84555V16.4641H3.92635C3.65035 16.4641 3.42715 16.6873 3.42715 16.9633C3.42715 17.2393 3.65035 17.4625 3.92635 17.4625H4.84555V17.9161H3.15355C2.87755 17.9161 2.65435 18.1393 2.65435 18.4153C2.65435 18.6913 2.87755 18.9145 3.15355 18.9145H5.12875C5.52475 18.9145 5.84635 18.5929 5.84635 18.1969V15.7153C5.84635 15.3193 5.52475 14.9977 5.12875 14.9977Z" fill="#00205C"/>
<path d="M20.9975 15.9985H8.53915C7.91515 15.9985 7.54315 16.3729 7.54315 16.9993C7.54315 17.6233 8.04235 18.0001 8.53915 18.0001H20.9975C21.4967 18.0001 21.9935 17.6257 21.9935 16.9993C21.9959 16.3729 21.4967 15.9985 20.9975 15.9985Z" fill="#00205C"/>
</g>
</g>
</svg>
