<svg width="24" height="24" viewBox="0 0 24 24" fill="none" xmlns="http://www.w3.org/2000/svg">
<path d="M15.5765 6.38521H8.42342C7.28168 6.38521 6.35278 7.31411 6.35278 8.45584V15.6089C6.35278 16.7507 7.28168 17.6798 8.42342 17.6798H15.5765C16.7183 17.6798 17.6474 16.7509 17.6474 15.6089V8.45584C17.6474 7.31411 16.7185 6.38521 15.5765 6.38521ZM12 15.7507C9.94992 15.7507 8.28197 14.0827 8.28197 12.0324C8.28197 9.98235 9.94992 8.3144 12 8.3144C14.0503 8.3144 15.7182 9.98235 15.7182 12.0324C15.7182 14.0824 14.05 15.7507 12 15.7507ZM15.8378 9.08313C15.3524 9.08313 14.9578 8.68847 14.9578 8.20343C14.9578 7.71839 15.3524 7.32373 15.8378 7.32373C16.3228 7.32373 16.7175 7.71839 16.7175 8.20343C16.7175 8.68847 16.3228 9.08313 15.8378 9.08313Z" fill="#A0A0A0"/>
<path d="M12 9.88545C10.8166 9.88545 9.85291 10.8486 9.85291 12.032C9.85291 13.216 10.8166 14.1794 12 14.1794C13.184 14.1794 14.1469 13.216 14.1469 12.032C14.1469 10.8488 13.1837 9.88545 12 9.88545Z" fill="#A0A0A0"/>
<path d="M12 0C5.37285 0 0 5.37285 0 12C0 18.6272 5.37285 24 12 24C18.6272 24 24 18.6272 24 12C24 5.37285 18.6272 0 12 0ZM19.2183 15.6089C19.2183 17.6172 17.5849 19.2507 15.5766 19.2507H8.42345C6.41538 19.2507 4.78166 17.6172 4.78166 15.6089V8.4558C4.78166 6.44774 6.41538 4.81401 8.42345 4.81401H15.5766C17.5849 4.81401 19.2183 6.44774 19.2183 8.4558V15.6089Z" fill="#A0A0A0"/>
</svg>
