<svg width="20" height="20" viewBox="0 0 20 20" fill="none" xmlns="http://www.w3.org/2000/svg">
<path d="M18.5999 6.9L13.1999 12.3C11.6999 13.8 9.1999 13.8 7.6999 12.3C7.3999 12 7.3999 11.5 7.6999 11.2C7.9999 10.9 8.4999 10.9 8.7999 11.2C9.6999 12.1 11.2999 12.1 12.1999 11.2L17.5999 5.8C18.4999 4.9 18.4999 3.3 17.5999 2.4C16.6999 1.5 15.0999 1.5 14.1999 2.4L11.8999 4.7C11.5999 5 11.0999 5 10.7999 4.7C10.4999 4.4 10.4999 3.9 10.7999 3.6L13.0999 1.3C14.5999 -0.199997 17.0999 -0.199997 18.5999 1.3C20.0999 2.8 20.0999 5.4 18.5999 6.9ZM8.0999 15.3L5.7999 17.6C4.8999 18.5 3.2999 18.5 2.3999 17.6C1.4999 16.7 1.4999 15.1 2.3999 14.2L7.7999 8.8C8.6999 7.9 10.2999 7.9 11.1999 8.8C11.4999 9.1 11.9999 9.1 12.2999 8.8C12.5999 8.5 12.5999 8 12.2999 7.7C10.7999 6.2 8.2999 6.2 6.7999 7.7L1.3999 13.1C-0.100098 14.6 -0.100098 17.1 1.3999 18.6C2.8999 20.1 5.3999 20.1 6.8999 18.6L9.1999 16.3C9.4999 16 9.4999 15.5 9.1999 15.2C8.8999 14.9 8.3999 15 8.0999 15.3Z" fill="#434343"/>
</svg>
