<svg width="24" height="24" viewBox="0 0 24 24" fill="none" xmlns="http://www.w3.org/2000/svg">
<g id="Union">
<path d="M16.9554 17.8399H15.185L11.6646 12.8119V12.8116L11.6644 12.8119L7.03507 6.19989H8.80551L16.9554 17.8399Z" fill="#A0A0A0"/>
<path fill-rule="evenodd" clip-rule="evenodd" d="M0 12C0 5.37265 5.37265 0 12 0C18.6276 0 24 5.37265 24 12C24 18.6274 18.6274 24 12 24C5.37265 24 0 18.6274 0 12ZM11.0801 13.49L14.6426 18.6669H18.5337L13.2432 10.9793L18.1075 5.33365H16.9549L12.7313 10.236L9.35768 5.33365H5.46682L10.5683 12.7464L5.46682 18.6669H6.61965L11.0801 13.49Z" fill="#A0A0A0"/>
</g>
</svg>
