<svg width="33" height="33" viewBox="0 0 33 33" fill="none" xmlns="http://www.w3.org/2000/svg">
<path d="M8.32448 9.14C8.32448 7.86 9.44448 6.74 10.7245 6.74C12.0045 6.74 13.1245 7.86 13.1245 9.14C13.2845 10.58 12.1645 11.7 10.8845 11.7C9.44448 11.7 8.32448 10.58 8.32448 9.14ZM32.9645 6.58V26.42C32.9645 29.78 30.2445 32.5 26.8845 32.5H21.4445H20.6445H7.04448C3.68448 32.5 0.964478 29.78 0.964478 26.42V25.3V6.58C0.964478 3.22 3.68448 0.5 7.04448 0.5H25.6045H26.8845C30.2445 0.5 32.9645 3.22 32.9645 6.58ZM3.36448 22.26L6.88448 18.74C8.32448 17.3 10.5645 17.3 12.0045 18.74L13.4445 20.18C13.9245 20.66 14.7245 20.66 15.2045 20.18L21.6045 13.78C23.0445 12.34 25.2845 12.34 26.7245 13.78L30.4045 17.46V6.58C30.4045 4.5 28.8045 2.9 26.7245 2.9H25.4445H7.04448C4.96448 2.9 3.36448 4.5 3.36448 6.58V22.26ZM30.5645 20.82L25.2845 15.54C24.8045 15.06 24.0045 15.06 23.5245 15.54L17.1245 21.94C15.6845 23.38 13.4445 23.38 12.0045 21.94L10.5645 20.5C10.0845 20.02 9.28448 20.02 8.80448 20.5L3.52448 25.78V26.42C3.52448 28.5 5.12448 30.1 7.20448 30.1H13.1245H19.6845H20.8045H22.7245H27.0445C28.9645 30.1 30.5645 28.5 30.5645 26.42V20.82Z" fill="#F5F5F5"/>
</svg>
