<svg width="1025" height="200" viewBox="0 0 1025 200" fill="none" xmlns="http://www.w3.org/2000/svg">
<rect width="1025" height="200" rx="8" fill="#F4F9FF"/>
<path d="M482.745 75.4666C482.745 71.2 486.478 67.4666 490.745 67.4666C495.012 67.4666 498.745 71.2 498.745 75.4666C499.278 80.2666 495.545 84 491.278 84C486.478 84 482.745 80.2666 482.745 75.4666ZM564.878 66.9333V133.067C564.878 144.267 555.812 153.333 544.612 153.333H526.478H523.812H478.478C467.278 153.333 458.212 144.267 458.212 133.067V129.333V66.9333C458.212 55.7333 467.278 46.6666 478.478 46.6666H540.345H544.612C555.812 46.6666 564.878 55.7333 564.878 66.9333ZM466.212 119.2L477.945 107.467C482.745 102.667 490.212 102.667 495.012 107.467L499.812 112.267C501.412 113.867 504.078 113.867 505.678 112.267L527.012 90.9333C531.812 86.1333 539.278 86.1333 544.078 90.9333L556.345 103.2V66.9333C556.345 60 551.012 54.6666 544.078 54.6666H539.812H478.478C471.545 54.6666 466.212 60 466.212 66.9333V119.2ZM556.878 114.4L539.278 96.8C537.678 95.2 535.012 95.2 533.412 96.8L512.078 118.133C507.278 122.933 499.812 122.933 495.012 118.133L490.212 113.333C488.612 111.733 485.945 111.733 484.345 113.333L466.745 130.933V133.067C466.745 140 472.078 145.333 479.012 145.333H498.745H520.612H524.345H530.745H545.145C551.545 145.333 556.878 140 556.878 133.067V114.4Z" fill="#E6F2FF"/>
</svg>
