<svg width="24" height="24" viewBox="0 0 24 24" fill="none" xmlns="http://www.w3.org/2000/svg">
<g clip-path="url(#clip0_367_13567)">
<path d="M22.0008 8.6011C21.9598 8.60863 21.9623 8.64795 21.9498 8.67556C21.8126 8.96084 21.5725 9.09219 21.289 9.03697C21.0104 8.98176 20.8289 8.76173 20.8213 8.44883C20.8004 7.55199 20.5461 6.73295 20.0032 6.01514C19.2529 5.02292 18.2508 4.47745 17.001 4.35781C17.0086 4.45402 17.0822 4.4833 17.1248 4.5335C17.3365 4.78114 17.334 5.12415 17.1165 5.34752C16.8931 5.57592 16.5334 5.58846 16.2925 5.35589C15.8902 4.96686 15.4945 4.57115 15.1055 4.16874C14.8705 3.92528 14.8763 3.59064 15.1155 3.34551C15.502 2.9498 15.8943 2.55994 16.2892 2.17259C16.3586 2.10398 16.4506 2.05713 16.5326 2.00024H16.8061C17.3708 2.21944 17.4226 2.56998 16.9667 3.17819C17.0504 3.18739 17.1265 3.1966 17.2018 3.20329C19.442 3.40157 21.3575 5.07897 21.8519 7.2667C21.908 7.51518 21.9138 7.77369 22.0008 8.01547V8.6011Z" fill="#00205C"/>
<path d="M5.17062 4.43877C5.56859 4.43877 5.96785 4.42596 6.36454 4.4439C6.57056 4.45286 6.62047 4.37857 6.60639 4.19029C6.59488 4.043 6.60255 3.89058 6.62687 3.74456C6.69725 3.3142 7.08114 2.99656 7.50727 3.0004C7.94875 3.00424 8.32369 3.3411 8.38255 3.78683C8.38767 3.82654 8.39151 3.86624 8.39279 3.90595C8.41241 4.26202 8.59668 4.44005 8.9456 4.44005C9.65197 4.44005 10.3596 4.43109 11.066 4.4439C11.5804 4.45286 11.9464 4.79612 11.9925 5.279C12.0308 5.69142 11.725 6.13715 11.3091 6.20504C11.0174 6.25243 10.7128 6.24218 10.4159 6.22937C10.2163 6.22041 10.1408 6.28445 10.1178 6.4817C9.98852 7.57552 9.64173 8.5925 8.98015 9.48396C8.84835 9.662 8.99039 9.68121 9.08892 9.72476C9.72235 10.0014 10.3852 10.1602 11.0762 10.2115C11.6546 10.255 12.0424 10.6623 11.9963 11.167C11.9477 11.7011 11.5062 12.0405 10.9201 11.9957C9.75434 11.906 8.65384 11.6012 7.65187 10.9825C7.53158 10.9082 7.45096 10.9223 7.33579 10.9915C6.33127 11.6025 5.23205 11.9111 4.065 11.9969C3.48532 12.0392 3.04 11.6857 3.00289 11.1529C2.96834 10.6572 3.35223 10.255 3.91144 10.2128C4.60118 10.1602 5.26532 10.0078 5.90002 9.73244C6.04463 9.66968 6.12908 9.63254 5.99344 9.4481C5.36769 8.59763 5.0209 7.6306 4.89806 6.58672C4.86478 6.29982 4.76881 6.19095 4.47833 6.23065C4.28254 6.25755 4.08036 6.2409 3.88201 6.23321C3.3983 6.21272 3.03104 5.85793 3.00161 5.38659C2.97346 4.93445 3.31768 4.52971 3.79499 4.45414C3.82443 4.44902 3.85386 4.44518 3.88457 4.44518C4.31197 4.44518 4.74066 4.44518 5.16806 4.44518V4.44262L5.17062 4.43877ZM7.50215 8.46698C7.97178 7.83553 8.21492 7.1426 8.32369 6.39332C8.34032 6.27804 8.32113 6.22937 8.19444 6.23065C7.72737 6.23578 7.2603 6.23321 6.79322 6.23065C6.68957 6.23065 6.65758 6.26524 6.67294 6.37411C6.78554 7.1298 7.02484 7.83297 7.50215 8.4657V8.46698Z" fill="#00205C"/>
<path d="M21 20.0735C21.0025 20.4938 20.727 20.8565 20.3437 20.9591C19.9335 21.0693 19.5323 20.9142 19.3234 20.5361C19.117 20.1619 18.926 19.7787 18.7478 19.3916C18.6773 19.2391 18.5889 19.1981 18.4299 19.1994C17.1443 19.2058 15.8586 19.2071 14.5716 19.1994C14.3948 19.1994 14.3089 19.2583 14.2371 19.4134C14.0756 19.7659 13.8961 20.1093 13.7167 20.4528C13.4539 20.9552 12.9591 21.1321 12.4912 20.8988C12.0336 20.6707 11.867 20.1427 12.1144 19.648C13.2937 17.2821 14.4806 14.92 15.6612 12.5554C15.8381 12.2004 16.115 11.9953 16.5085 12.0005C16.8892 12.0056 17.1571 12.2081 17.3288 12.5528C18.5094 14.9162 19.6925 17.2782 20.8756 19.6403C20.9474 19.7838 20.9872 19.9376 20.9987 20.0747L21 20.0735ZM17.7454 17.3961C17.3263 16.5579 16.9199 15.748 16.4969 14.9008C16.0688 15.7595 15.665 16.5708 15.2536 17.3961H17.7454Z" fill="#00205C"/>
<path d="M7.03729 19.626C6.8909 19.4796 6.78131 19.3758 6.73447 19.2277C6.65835 18.9851 6.75204 18.7099 6.95531 18.5693C7.16862 18.4221 7.47059 18.4179 7.66132 18.6003C8.08961 19.0085 8.50953 19.4269 8.91608 19.8569C9.11851 20.071 9.10262 20.4057 8.89433 20.6215C8.50201 21.029 8.10132 21.4297 7.69394 21.8229C7.45972 22.0488 7.10672 22.0371 6.88253 21.8196C6.655 21.5979 6.64998 21.2415 6.87166 20.993C6.9185 20.9403 6.96869 20.8901 7.03645 20.819C6.78884 20.7838 6.56048 20.7612 6.33629 20.7186C4.07522 20.2861 2.39636 18.54 2.05339 16.2603C2.01826 16.0294 2.00905 15.7935 2.00403 15.56C1.99734 15.2045 2.25331 14.9351 2.58373 14.9334C2.91499 14.9317 3.15841 15.1936 3.17431 15.5542C3.25126 17.3186 4.0953 18.5727 5.69637 19.3122C6.10375 19.5005 6.53789 19.5967 7.03645 19.626H7.03729Z" fill="#00205C"/>
</g>
<defs>
<clipPath id="clip0_367_13567">
<rect width="20" height="20" fill="white" transform="translate(2.00098 2.00024)"/>
</clipPath>
</defs>
</svg>
