<svg width="24" height="24" viewBox="0 0 24 24" fill="none" xmlns="http://www.w3.org/2000/svg">
<g id="360 view">
<path id="Vector" d="M22.716 11.052C22.716 13.372 20.156 15.328 16.032 16.156C15.62 16.244 15.204 15.968 15.12 15.548C15.036 15.128 15.308 14.72 15.728 14.636C18.932 13.992 21.168 12.516 21.168 11.052C21.168 9.18803 17.404 7.10803 12.004 7.10803C6.60402 7.10803 2.84002 9.18803 2.84002 11.052C2.84002 12.472 4.87603 13.848 7.86403 14.536L7.01603 13.104C6.80002 12.74 6.92403 12.256 7.28803 12.04C7.65203 11.824 8.13603 11.948 8.35203 12.312L10.252 15.376C10.42 15.524 10.372 15.716 10.324 15.908C10.276 16.1 10.128 16.272 9.98003 16.44L6.91603 18.34C6.67203 18.484 6.48003 18.436 6.28403 18.384C6.08803 18.332 5.92003 18.188 5.84803 18.068C5.63203 17.704 5.75603 17.22 6.12003 17.004L7.66403 16.088C3.76803 15.232 1.28802 13.296 1.28802 11.048C1.28802 7.96803 5.99603 5.55603 12.004 5.55603C18.008 5.56003 22.716 7.97203 22.716 11.052Z" fill="#F9FCFF"/>
</g>
</svg>
