<svg width="24" height="24" viewBox="0 0 24 24" fill="none" xmlns="http://www.w3.org/2000/svg">
<g id="Add">
<path id="Vector" d="M16.9 11.9999C16.9 12.3999 16.6 12.6999 16.1 12.6999H12.7V16.0999C12.7 16.4999 12.4 16.8999 12 16.8999C11.6 16.8999 11.2 16.5999 11.2 16.1999V12.7999H7.80002C7.40002 12.7999 7.10002 12.4999 7.10002 11.9999C7.10002 11.4999 7.40002 11.2999 7.90002 11.2999H11.3V7.8999C11.3 7.4999 11.6 7.0999 12 7.0999C12.4 7.0999 12.8 7.3999 12.8 7.7999V11.1999H16.2C16.6 11.2999 16.9 11.5999 16.9 11.9999ZM22.1 11.9999C22.1 17.5999 17.6 22.0999 12 22.0999C6.40002 22.0999 1.90002 17.5999 1.90002 11.9999C1.90002 6.3999 6.40002 1.8999 12 1.8999C17.6 1.8999 22.1 6.3999 22.1 11.9999ZM20.5 11.9999C20.5 7.2999 16.7 3.4999 12 3.4999C7.30002 3.4999 3.50002 7.2999 3.50002 11.9999C3.50002 16.6999 7.30002 20.4999 12 20.4999C16.7 20.4999 20.5 16.6999 20.5 11.9999Z" fill="#0081FF"/>
</g>
</svg>
