<svg width="48" height="48" viewBox="0 0 48 48" fill="none" xmlns="http://www.w3.org/2000/svg">
<g id="add image">
<path id="Vector" d="M30.4367 17.0593C26.7839 13.4065 26.7839 7.4593 30.4415 3.8017C34.0943 0.148903 40.0415 0.144103 43.6943 3.8017C47.3471 7.4593 47.3471 13.4017 43.6895 17.0593C40.0367 20.7121 34.0895 20.7121 30.4367 17.0593ZM41.5055 5.9857C39.0575 3.5377 35.0735 3.5377 32.6207 5.9857C30.1679 8.4385 30.1679 12.4225 32.6159 14.8705C35.0639 17.3185 39.0527 17.3185 41.5055 14.8705C43.9583 12.4225 43.9583 8.4385 41.5055 5.9857ZM39.8351 11.8609L38.5775 11.8753L38.5631 13.1329C38.5631 13.9537 37.8815 14.6305 37.0607 14.6353C36.6527 14.6209 36.2687 14.4673 35.9999 14.1985C35.7311 13.9297 35.5631 13.5313 35.5631 13.1377L35.5775 11.9329L34.3727 11.9473C33.9503 11.9473 33.5807 11.7793 33.3119 11.5105C33.0431 11.2417 32.8751 10.8721 32.8751 10.4497C32.8751 9.6289 33.5423 8.9377 34.3775 8.9473L35.6351 8.9329L35.6495 7.6753C35.6495 6.8545 36.3311 6.1777 37.1519 6.1729C37.9727 6.1729 38.6495 6.8497 38.6495 7.6705L38.6351 8.8753L39.8399 8.8609C40.6607 8.8609 41.3375 9.5137 41.3375 10.3585C41.3327 11.1841 40.6655 11.8753 39.8351 11.8609ZM37.6463 43.9105H10.3535C6.88791 43.9105 4.07031 41.0929 4.07031 37.6273V10.3345C4.07031 6.8689 6.88791 4.0513 10.3535 4.0513H23.0783C23.9327 4.0513 24.6287 4.7425 24.6287 5.6017C24.6287 6.4609 23.9327 7.1521 23.0783 7.1521H10.3535C8.59671 7.1521 7.17111 8.5777 7.17111 10.3345V33.3025L12.0287 28.4449C13.4975 26.9761 15.8687 26.8993 17.4287 28.2673L21.0479 31.4353C21.3983 31.7425 21.9215 31.7185 22.2335 31.3729L30.0479 22.9393C30.7823 22.1425 31.7903 21.6961 32.8703 21.6721C33.9647 21.6145 34.9727 22.0657 35.7407 22.8289L43.4111 30.4993C43.7375 30.7921 43.9295 31.2049 43.9295 31.6513V37.6273C43.9295 41.0881 41.1119 43.9105 37.6463 43.9105ZM7.17111 37.6465C7.18551 39.3937 8.60631 40.8049 10.3535 40.8049H37.6463C39.3983 40.8049 40.8287 39.3793 40.8287 37.6225V32.2945L33.5519 25.0177C33.3263 24.7921 33.0671 24.7489 32.9327 24.7681C32.7983 24.7729 32.5391 24.8113 32.3231 25.0417L24.5135 33.4753C23.0495 35.0593 20.6255 35.1841 19.0079 33.7633L15.3887 30.5953C15.0527 30.3025 14.5391 30.3169 14.2223 30.6337L7.38711 37.4689C7.31991 37.5361 7.24791 37.5985 7.17111 37.6465ZM15.0095 13.8337C13.4975 13.8337 12.2687 15.0625 12.2687 16.5745C12.2687 18.0865 13.4975 19.3153 15.0095 19.3153C16.5215 19.3153 17.7503 18.0865 17.7503 16.5745C17.7503 15.0625 16.5263 13.8337 15.0095 13.8337Z" fill="#434343"/>
</g>
</svg>
