<svg width="16" height="17" viewBox="0 0 16 17" fill="none" xmlns="http://www.w3.org/2000/svg">
<g id="Crossmark">
<path id="Vector" fill-rule="evenodd" clip-rule="evenodd" d="M12.6667 12.5C12.8667 12.7 12.8667 13.0334 12.6667 13.2334C12.4667 13.4334 12.1333 13.4334 11.9333 13.2334L8 9.23337L4.06667 13.2334C3.86667 13.4334 3.53333 13.4334 3.33333 13.2334C3.13333 13.0334 3.13333 12.7 3.33333 12.5L7.26667 8.50003L3.33333 4.50003C3.13333 4.30003 3.13333 3.9667 3.33333 3.7667C3.53333 3.5667 3.86667 3.5667 4.06667 3.7667L8 7.7667L11.9333 3.7667C12.1333 3.5667 12.4667 3.5667 12.6667 3.7667C12.8667 3.9667 12.8667 4.30003 12.6667 4.50003L8.66667 8.50003L12.6667 12.5Z" fill="#434343"/>
</g>
</svg>
