<svg width="24" height="24" viewBox="0 0 24 24" fill="none" xmlns="http://www.w3.org/2000/svg">
<g id="Delete">
<path id="Vector" d="M20.21 5.09H15.83V2.75C15.83 2.34 15.49 2 15.08 2H8.92004C8.51004 2 8.17004 2.34 8.17004 2.75V5.09H3.79004C3.38004 5.09 3.04004 5.43 3.04004 5.84C3.04004 6.25 3.38004 6.59 3.79004 6.59H4.94004V19.2C4.94004 20.74 6.20004 22 7.74004 22H15.9C17.44 22 18.7 20.74 18.7 19.2V6.59H20.21C20.62 6.59 20.96 6.25 20.96 5.84C20.96 5.43 20.62 5.09 20.21 5.09ZM9.67004 3.5H14.33V5.08H9.67004V3.5ZM17.2 19.2C17.2 19.92 16.62 20.5 15.9 20.5H7.74004C7.02004 20.5 6.44004 19.92 6.44004 19.2V6.59H17.2V19.2ZM9.19004 17.15V9.76C9.19004 9.35 9.53004 9.01 9.94004 9.01C10.35 9.01 10.69 9.35 10.69 9.76V17.15C10.69 17.56 10.35 17.9 9.94004 17.9C9.53004 17.9 9.19004 17.56 9.19004 17.15ZM13.3 17.15V9.76C13.3 9.35 13.64 9.01 14.05 9.01C14.46 9.01 14.8 9.35 14.8 9.76V17.15C14.8 17.56 14.46 17.9 14.05 17.9C13.64 17.9 13.3 17.56 13.3 17.15Z" fill="#00205C"/>
</g>
</svg>
