<svg width="44" height="44" viewBox="0 0 44 44" fill="none" xmlns="http://www.w3.org/2000/svg">
<path d="M12.3 7.82C10.62 7.82 9.26 9.18 9.26 10.86C9.26 12.54 10.62 13.9 12.3 13.9C13.98 13.9 15.34 12.54 15.34 10.86C15.34 9.18 13.96 7.82 12.3 7.82Z" fill="#434343"/>
<path fill-rule="evenodd" clip-rule="evenodd" d="M25.7008 39.9915C25.6479 39.9971 25.5943 40 25.54 40H7.64C3.40839 40 0 36.5652 0 32.36V7.64C0 3.40839 3.43476 0 7.64 0H32.36C36.5916 0 40 3.43476 40 7.64V25.5C40 25.5123 39.9999 25.5245 39.9996 25.5367C41.5448 27.3248 42.48 29.6543 42.48 32.2C42.48 34.4738 41.7339 36.5751 40.4734 38.2722L42.8206 40.6193C43.4064 41.2051 43.4064 42.1549 42.8206 42.7407C42.2348 43.3264 41.285 43.3264 40.6993 42.7407L38.3521 40.3935C36.655 41.6539 34.5537 42.4 32.28 42.4C29.774 42.4 27.4775 41.4938 25.7008 39.9915ZM3 7.64C3 5.07161 5.08524 3 7.64 3H32.36C34.9284 3 37 5.08524 37 7.64V21.1187L32.4807 16.5993C30.6949 14.8136 27.7851 14.8136 25.9993 16.5993L18.0193 24.5793C17.4051 25.1936 16.3949 25.1936 15.7807 24.5793L13.9807 22.7793C12.1949 20.9936 9.28513 20.9936 7.49934 22.7793L3 27.2787V7.64ZM3 31.5213L9.62066 24.9007C10.2349 24.2864 11.2451 24.2864 11.8593 24.9007L13.6593 26.7007C15.4451 28.4864 18.3549 28.4864 20.1407 26.7007L28.1207 18.7207C28.7349 18.1064 29.7451 18.1064 30.3593 18.7207L33.7431 22.1044C33.2652 22.0356 32.7767 22 32.28 22C26.6515 22 22.08 26.5716 22.08 32.2C22.08 33.9347 22.5142 35.569 23.2798 37H7.64C5.07161 37 3 34.9148 3 32.36V31.5213ZM32.28 25C28.3084 25 25.08 28.2284 25.08 32.2C25.08 36.1716 28.3084 39.4 32.28 39.4C36.2515 39.4 39.48 36.1716 39.48 32.2C39.48 28.2284 36.2515 25 32.28 25Z" fill="#434343"/>
</svg>
