<svg width="33" height="32" viewBox="0 0 33 32" fill="none" xmlns="http://www.w3.org/2000/svg">
<g id="icon">
<g id="Union">
<path fill-rule="evenodd" clip-rule="evenodd" d="M27.6042 11.7665L29.6458 13.8081C29.8474 14.0097 30.113 14.1121 30.3754 14.1121C30.641 14.1121 30.9034 14.0097 31.105 13.8081C31.5082 13.4049 31.5082 12.7521 31.105 12.3457L28.977 10.2177C30.4586 7.81134 30.1706 4.61454 28.0906 2.53134C25.6554 0.0961437 21.6906 0.0993438 19.2554 2.53454C16.8202 4.96974 16.817 8.93774 19.2522 11.3729C21.537 13.6577 25.153 13.7697 27.6042 11.7665ZM20.7114 3.99374C22.3434 2.36174 25.0026 2.36174 26.6346 3.99374C28.2698 5.62894 28.2666 8.28494 26.6346 9.91694C24.9994 11.5521 22.3402 11.5489 20.7082 9.91694C19.0762 8.28494 19.0762 5.62574 20.7114 3.99374Z" fill="#00205C"/>
<path fill-rule="evenodd" clip-rule="evenodd" d="M29.6074 20.3329L24.497 15.2193C23.985 14.7073 23.313 14.4097 22.5834 14.4481C21.8602 14.4609 21.1914 14.7617 20.7018 15.2929L15.4922 20.9121C15.281 21.1393 14.9354 21.1585 14.7018 20.9537L12.289 18.8417C11.249 17.9329 9.66822 17.9809 8.68902 18.9601L5.44742 22.1985V6.88974C5.44742 5.71854 6.39782 4.76814 7.56902 4.76814H14.9898C15.5594 4.76814 16.0234 4.30734 16.0234 3.73454C16.0234 3.16174 15.5594 2.70094 14.9898 2.70094H7.56902C5.25862 2.70094 3.38022 4.57934 3.38022 6.88974V25.0849C3.38022 27.3953 5.25862 29.2737 7.56902 29.2737H25.7642C28.0746 29.2737 29.953 27.3953 29.953 25.0849V21.1009C29.953 20.8033 29.825 20.5249 29.6074 20.3329ZM27.8858 25.0849C27.8858 26.2529 26.9354 27.2065 25.7642 27.2065H7.56902C6.40422 27.2065 5.45702 26.2625 5.44742 25.1009C5.49862 25.0657 5.54662 25.0273 5.59142 24.9825L10.1482 20.4257C10.3594 20.2145 10.7018 20.2017 10.9258 20.4001L13.3386 22.5121C14.417 23.4593 16.0298 23.3761 17.009 22.3201L22.2186 16.6977C22.3626 16.5441 22.5354 16.5185 22.625 16.5153C22.7146 16.5025 22.8874 16.5313 23.0378 16.6817L27.889 21.5361V25.0849H27.8858Z" fill="#00205C"/>
<path d="M10.6729 12.8769C9.66491 12.8769 8.84571 12.0577 8.84571 11.0497C8.84571 10.0417 9.66491 9.22254 10.6729 9.22254C11.6809 9.22254 12.5001 10.0417 12.5001 11.0497C12.5001 12.0577 11.6809 12.8769 10.6729 12.8769Z" fill="#00205C"/>
</g>
</g>
</svg>
