<svg width="24" height="24" viewBox="0 0 24 24" fill="none" xmlns="http://www.w3.org/2000/svg">
<g id="warning">
<path id="Vector" d="M12.7 9.2999C12.7 9.6999 12.4 10.0999 11.9 10.0999C11.4 10.0999 11.1 9.7999 11.1 9.2999C11.1 8.8999 11.4 8.4999 11.9 8.4999C12.4 8.4999 12.7 8.8999 12.7 9.2999ZM12 11.1999C11.6 11.1999 11.2 11.4999 11.2 11.9999V16.6999C11.2 17.0999 11.5 17.4999 12 17.4999C12.5 17.4999 12.8 17.1999 12.8 16.6999V11.9999C12.7 11.5999 12.4 11.1999 12 11.1999ZM21.7 19.5999C21.1 20.5999 20.1 21.1999 19 21.1999H5.1C4 21.1999 2.9 20.5999 2.4 19.5999C1.8 18.5999 1.8 17.3999 2.4 16.4999L9.3 4.4999C9.9 3.4999 10.9 2.8999 12 2.8999C13.1 2.8999 14.2 3.4999 14.7 4.4999L21.6 16.4999C22.2 17.3999 22.2 18.5999 21.7 19.5999ZM20.3 17.1999L13.4 5.1999C13.1 4.6999 12.6 4.3999 12 4.3999C11.4 4.3999 10.9 4.6999 10.6 5.1999L3.7 17.1999C3.4 17.6999 3.4 18.2999 3.7 18.7999C4 19.2999 4.5 19.5999 5.1 19.5999H19C19.6 19.5999 20.1 19.2999 20.4 18.7999C20.7 18.2999 20.6 17.6999 20.3 17.1999Z" fill="#434343"/>
</g>
</svg>
