<svg width="16" height="17" viewBox="0 0 16 17" fill="none" xmlns="http://www.w3.org/2000/svg">
<path d="M14.52 4.44663L12.0533 1.97996C11.86 1.78663 11.54 1.78663 11.3466 1.97996L1.48664 11.84C1.39331 11.9333 1.33998 12.06 1.33998 12.1933V14.6666C1.33331 14.8 1.38664 14.9266 1.47998 15.02C1.57331 15.1133 1.69998 15.1666 1.83331 15.1666H4.30664C4.43998 15.16 4.56664 15.1066 4.65998 15.0133L14.52 5.15329C14.6133 5.05996 14.6666 4.93329 14.6666 4.79996C14.6666 4.66663 14.6133 4.53996 14.52 4.44663ZM4.09998 14.16H2.33331V12.4L9.84664 4.89329C9.84664 4.89329 9.86664 4.92663 9.87998 4.93996L11.56 6.61996C11.56 6.61996 11.5933 6.63996 11.6066 6.65329L4.09998 14.16ZM12.3 5.95996C12.3 5.95996 12.28 5.92663 12.2666 5.91329L10.5866 4.23329C10.5866 4.23329 10.5533 4.21329 10.54 4.19996L11.7 3.03996L13.46 4.79996L12.3 5.95996Z" fill="#F9FCFF"/>
</svg>
