<svg width="41" height="37" viewBox="0 0 41 37" fill="none" xmlns="http://www.w3.org/2000/svg">
<path d="M21.9004 13.0998C21.9004 13.8998 21.3004 14.6998 20.3004 14.6998C19.3004 14.6998 18.7004 14.0998 18.7004 13.0998C18.7004 12.2998 19.3004 11.4998 20.3004 11.4998C21.3004 11.4998 21.9004 12.2998 21.9004 13.0998ZM20.5004 16.8998C19.7004 16.8998 18.9004 17.4998 18.9004 18.4998V27.8998C18.9004 28.6998 19.5004 29.4998 20.5004 29.4998C21.5004 29.4998 22.1004 28.8998 22.1004 27.8998V18.4998C21.9004 17.6998 21.3004 16.8998 20.5004 16.8998ZM39.9004 33.6998C38.7004 35.6998 36.7004 36.8998 34.5004 36.8998H6.70039C4.50039 36.8998 2.30039 35.6998 1.30039 33.6998C0.100391 31.6998 0.100391 29.2998 1.30039 27.4998L15.1004 3.4998C16.3004 1.4998 18.3004 0.299805 20.5004 0.299805C22.7004 0.299805 24.9004 1.4998 25.9004 3.4998L39.7004 27.4998C40.9004 29.2998 40.9004 31.6998 39.9004 33.6998ZM37.1004 28.8998L23.3004 4.8998C22.7004 3.8998 21.7004 3.2998 20.5004 3.2998C19.3004 3.2998 18.3004 3.8998 17.7004 4.8998L3.90039 28.8998C3.30039 29.8998 3.30039 31.0998 3.90039 32.0998C4.50039 33.0998 5.50039 33.6998 6.70039 33.6998H34.5004C35.7004 33.6998 36.7004 33.0998 37.3004 32.0998C37.9004 31.0998 37.7004 29.8998 37.1004 28.8998Z" fill="#FFAA15"/>
</svg>
