<svg width="17" height="17" viewBox="0 0 17 17" fill="none" xmlns="http://www.w3.org/2000/svg">
<g clip-path="url(#clip0_65410_5749)">
<path d="M13.974 3.8935H11.054V2.3335C11.054 2.06016 10.8273 1.8335 10.554 1.8335H6.44734C6.17401 1.8335 5.94734 2.06016 5.94734 2.3335V3.8935H3.02734C2.75401 3.8935 2.52734 4.12016 2.52734 4.3935C2.52734 4.66683 2.75401 4.8935 3.02734 4.8935H3.79401V13.3002C3.79401 14.3268 4.63401 15.1668 5.66068 15.1668H11.1007C12.1273 15.1668 12.9673 14.3268 12.9673 13.3002V4.8935H13.974C14.2473 4.8935 14.474 4.66683 14.474 4.3935C14.474 4.12016 14.2473 3.8935 13.974 3.8935ZM6.94734 2.8335H10.054V3.88683H6.94734V2.8335ZM11.9673 13.3002C11.9673 13.7802 11.5807 14.1668 11.1007 14.1668H5.66068C5.18068 14.1668 4.79401 13.7802 4.79401 13.3002V4.8935H11.9673V13.3002ZM6.62734 11.9335V7.00683C6.62734 6.7335 6.85401 6.50683 7.12734 6.50683C7.40068 6.50683 7.62734 6.7335 7.62734 7.00683V11.9335C7.62734 12.2068 7.40068 12.4335 7.12734 12.4335C6.85401 12.4335 6.62734 12.2068 6.62734 11.9335ZM9.36734 11.9335V7.00683C9.36734 6.7335 9.59401 6.50683 9.86734 6.50683C10.1407 6.50683 10.3673 6.7335 10.3673 7.00683V11.9335C10.3673 12.2068 10.1407 12.4335 9.86734 12.4335C9.59401 12.4335 9.36734 12.2068 9.36734 11.9335Z" fill="#434343"/>
</g>
<defs>
<clipPath id="clip0_65410_5749">
<rect width="16" height="16" fill="white" transform="translate(0.5 0.5)"/>
</clipPath>
</defs>
</svg>
