<svg width="40" height="40" viewBox="0 0 40 40" fill="none" xmlns="http://www.w3.org/2000/svg">
<path d="M9.2 10.8C9.2 9.2 10.6 7.8 12.2 7.8C13.8 7.8 15.2 9.2 15.2 10.8C15.4 12.6 14 14 12.4 14C10.6 14 9.2 12.6 9.2 10.8ZM40 7.6V32.4C40 36.6 36.6 40 32.4 40H25.6H24.6H7.6C3.4 40 0 36.6 0 32.4V31V7.6C0 3.4 3.4 0 7.6 0H30.8H32.4C36.6 0 40 3.4 40 7.6ZM3 27.2L7.4 22.8C9.2 21 12 21 13.8 22.8L15.6 24.6C16.2 25.2 17.2 25.2 17.8 24.6L25.8 16.6C27.6 14.8 30.4 14.8 32.2 16.6L36.8 21.2V7.6C36.8 5 34.8 3 32.2 3H30.6H7.6C5 3 3 5 3 7.6V27.2ZM37 25.4L30.4 18.8C29.8 18.2 28.8 18.2 28.2 18.8L20.2 26.8C18.4 28.6 15.6 28.6 13.8 26.8L12 25C11.4 24.4 10.4 24.4 9.8 25L3.2 31.6V32.4C3.2 35 5.2 37 7.8 37H15.2H23.4H24.8H27.2H32.6C35 37 37 35 37 32.4V25.4Z" fill="#A0A0A0"/>
</svg>
