<svg width="15" height="15" viewBox="0 0 15 15" fill="none" xmlns="http://www.w3.org/2000/svg">
<path d="M10.7676 7.49994C10.7676 7.7666 10.5676 7.9666 10.2342 7.9666H7.96758V10.2333C7.96758 10.4999 7.76758 10.7666 7.50091 10.7666C7.23425 10.7666 6.96758 10.5666 6.96758 10.2999V8.03327H4.70091C4.43424 8.03327 4.23424 7.83327 4.23424 7.49994C4.23424 7.1666 4.43424 7.03327 4.76758 7.03327H7.03425V4.7666C7.03425 4.49993 7.23425 4.23327 7.50091 4.23327C7.76758 4.23327 8.03425 4.43327 8.03425 4.69993V6.9666H10.3009C10.5676 7.03327 10.7676 7.23327 10.7676 7.49994ZM14.2342 7.49994C14.2342 11.2333 11.2342 14.2333 7.50091 14.2333C3.76758 14.2333 0.767578 11.2333 0.767578 7.49994C0.767578 3.7666 3.76758 0.766602 7.50091 0.766602C11.2342 0.766602 14.2342 3.7666 14.2342 7.49994ZM13.1676 7.49994C13.1676 4.3666 10.6342 1.83327 7.50091 1.83327C4.36758 1.83327 1.83424 4.3666 1.83424 7.49994C1.83424 10.6333 4.36758 13.1666 7.50091 13.1666C10.6342 13.1666 13.1676 10.6333 13.1676 7.49994Z" fill="#434343"/>
</svg>
