<svg width="43" height="43" viewBox="0 0 43 43" fill="none" xmlns="http://www.w3.org/2000/svg">
<path d="M9.7 10.8C9.7 9.2 11.1 7.8 12.7 7.8C14.3 7.8 15.7 9.2 15.7 10.8C15.9 12.6 14.5 14 12.9 14C11.1 14 9.7 12.6 9.7 10.8ZM35.7 30.6H34.5V29.4C34.5 28.6 33.9 28 32.9 28C32.1 28 31.5 28.6 31.5 29.6V30.8H30.3C29.5 30.8 28.7 31.4 28.7 32.2C28.7 33 29.3 33.8 30.1 33.8H31.3V35C31.3 35.8 31.9 36.4 32.9 36.4C33.7 36.4 34.3 35.8 34.3 34.8V33.6H35.5C36.3 33.6 37.1 33 37.1 32.2C37.1 31.4 36.5 30.6 35.7 30.6ZM42.9 32.2C42.9 34.4 42.1 36.6 40.9 38.2C40.1 39.2 39.3 39.8 38.7 40.4C37.1 41.8 34.9 42.4 32.7 42.4C30.1 42.4 27.9 41.4 26.1 40H25.9H7.9C3.9 40 0.5 36.6 0.5 32.4V31V7.6C0.5 3.4 3.9 0 8.1 0H32.9C37.1 0 40.5 3.4 40.5 7.6V25.4C42.1 27.4 42.9 29.6 42.9 32.2ZM3.5 27.2L7.9 22.8C9.7 21 12.5 21 14.3 22.8L16.1 24.6C16.7 25.2 17.7 25.2 18.3 24.6L26.3 16.6C28.1 14.8 30.9 14.8 32.7 16.6L37.3 21.2V7.6C37.3 5 35.3 3 32.7 3H8.1C5.5 3 3.5 5 3.5 7.6V27.2ZM22.5 32.2C22.5 26.6 27.1 22 32.7 22C33.1 22 33.7 22 34.1 22.2L30.7 18.8C30.1 18.2 29.1 18.2 28.5 18.8L20.5 26.8C18.7 28.6 15.9 28.6 14.1 26.8L12.3 25C11.7 24.4 10.7 24.4 10.1 25L3.5 31.6V32.4C3.5 35 5.5 37 8.1 37H23.7C23.1 35.6 22.5 34 22.5 32.2ZM39.9 32.2C39.9 28.2 36.7 25 32.7 25C28.7 25 25.5 28.2 25.5 32.2C25.5 36.2 28.7 39.4 32.7 39.4C36.7 39.4 39.9 36.2 39.9 32.2Z" fill="#00205C"/>
</svg>
