<svg width="16" height="16" viewBox="0 0 16 16" fill="none" xmlns="http://www.w3.org/2000/svg">
<path fill-rule="evenodd" clip-rule="evenodd" d="M1.40659 0.245051C1.0883 -0.0781644 0.568266 -0.0821616 0.245051 0.236123C-0.0781644 0.554407 -0.0821616 1.07445 0.236123 1.39766L6.73734 7.99959L0.236566 14.5909C-0.0819669 14.9139 -0.0783693 15.434 0.244601 15.7525C0.567571 16.071 1.08761 16.0674 1.40614 15.7444L7.89007 9.17019L14.3744 15.7549C14.6927 16.0782 15.2127 16.0822 15.5359 15.7639C15.8591 15.4456 15.8631 14.9256 15.5449 14.6023L9.04371 8.00048L15.5554 1.39811C15.8739 1.07514 15.8703 0.555098 15.5473 0.236566C15.2244 -0.0819669 14.7043 -0.0783693 14.3858 0.244601L7.89097 6.82989L1.40659 0.245051Z" fill="#434343"/>
</svg>
