<svg width="25" height="24" viewBox="0 0 25 24" fill="none" xmlns="http://www.w3.org/2000/svg">
<g id="Error">
<path id="Vector" d="M12.25 22C17.75 22 22.25 17.5 22.25 12C22.25 6.5 17.75 2 12.25 2C6.75 2 2.25 6.5 2.25 12C2.25 17.5 6.75 22 12.25 22ZM12.25 3.5C16.95 3.5 20.75 7.3 20.75 12C20.75 16.7 16.95 20.5 12.25 20.5C7.55 20.5 3.75 16.7 3.75 12C3.75 7.3 7.55 3.5 12.25 3.5ZM11.45 12.9L11.45 8.4C11.45 8 11.85 7.6 12.25 7.6C12.65 7.6 13.05 8 13.05 8.4L13.05 12.9C13.05 13.3 12.65 13.7 12.25 13.7C11.85 13.7 11.45 13.4 11.45 12.9ZM11.45 15.6C11.45 15.2 11.85 14.8 12.25 14.8C12.65 14.8 13.05 15.2 13.05 15.6C13.05 16 12.65 16.4 12.25 16.4C11.85 16.4 11.45 16.1 11.45 15.6Z" fill="#FF4040"/>
<path id="Vector_2" fill-rule="evenodd" clip-rule="evenodd" d="M12.25 20.5C16.95 20.5 20.75 16.7 20.75 12C20.75 7.3 16.95 3.5 12.25 3.5C7.55 3.5 3.75 7.3 3.75 12C3.75 16.7 7.55 20.5 12.25 20.5ZM11.45 8.4C11.45 8 11.85 7.6 12.25 7.6C12.65 7.6 13.05 8 13.05 8.4L13.05 12.9C13.05 13.3 12.65 13.7 12.25 13.7C11.85 13.7 11.45 13.3 11.45 12.9L11.45 8.4ZM12.25 14.8C12.65 14.8 13.05 15.2 13.05 15.6C13.05 16 12.65 16.4 12.25 16.4C11.85 16.4 11.45 16 11.45 15.6C11.45 15.2 11.85 14.8 12.25 14.8Z" fill="#FFECEC"/>
</g>
</svg>
